<?xml version="1.0" encoding="UTF-8"?>
<svg id="Layer_2" data-name="Layer 2" xmlns="http://www.w3.org/2000/svg" viewBox="0 0 1080 944.39">
  <g id="Layer_1-2" data-name="Layer 1">
    <g>
      <path d="m8.04,590.39c-3.69.64-5.27-2.88-8.04-4.06v-8c3.71-1.19,3.6-5.29,5.87-7.71,6.52-6.97,13.95-12.77,21.84-17.99,4.37-2.89,5.17-6.79,4.27-11.2-.74-3.6-2.3-7.04-2.66-11.59-2.7,3.5-3.33,6.62-3.2,10,.13,3.3-.64,6.36-3.26,8.55C15.68,554.37,7.87,559.39,0,564.34v-5c10.69-3.62,19.69-8.85,21.31-21.53.42-3.29,1.13-6.59,2.2-9.72,1.53-4.48.42-8.21-2.54-11.51-5.69-6.34-10.67-13.12-14.87-20.58C4.58,493.28,3.36,489.81,0,488.34v-6c5.11-5.71,11.64-9.72,17.36-14.68,5.27-4.56,9.94-9.81,14.86-14.77,4.53-4.57,4.96-7.57.97-12.56-4.97-6.21-9.13-12.39-10.39-20.76-1.1-7.31-2.1-13.97,2.15-20.56,2.32-3.61,3.1-7.56,1.21-11.86-2.72-6.2-2.11-11.91,3.33-16.58.35-.3.42-.92.72-1.3,6.33-7.9,11.36-17.16,21.97-20.53,1.06-.34,2.77,0,3.28-2.09-3.87.11-7.53-.15-11.04,1.66-9.55,4.94-17.56,12.07-24.97,19.51-5.9,5.92-12.42,12.05-11.84,22.39.24,4.3-1.64,10.25-7.61,12.12v-4c3.3-3.59,5.03-7.83,4.86-12.7-.17-4.81,1.82-8.63,4.76-12.24,7.33-8.99,16.48-15.89,25.61-22.87,7.39-5.64,15.25-9.37,24.83-8.36,1.65.17,3.35.16,4.99-.08,2.74-.4,5.13-1.65,6.3-4.3,1.11-2.52-1.14-3.93-2.32-5.64-1.62-2.33-4.59-3.47-5.77-6.15-3.06-6.95-8.18-11.87-14.43-16.06-6.3-4.22-6.59-9.21-1.02-14.43,5.18-4.86,11.76-8,16.73-13.24,3.09-3.26,6.8-5.58,11.44-6.68,3.83-.91,7.56-3.01,10.2-6,7.15-8.08,14.28-16.22,20.82-24.79,4.97-6.51,4.22-9.43-2.05-15.36-.98,14.64-10.27,24.52-19.43,34.45-1.22,1.32-2.84,2.42-4.8,2.42-6.32-.02-12.94,1.06-18.91-.42-9.34-2.31-17.3-1.37-24.75,4.73-6.13,5.02-13.8,8.05-18.6,14.83-2.3,3.26-3.28,7.31-6.37,10.09-4.24,3.8-5.22,8.62-4.16,14.07,1.47,7.57,4.47,14.57,8,21.34,3.8,7.28,2.99,11.33-3.28,16.49C7.97,351.27,2.66,354.53,0,360.34v-9c1.58,1.25,2.85.94,4.32-.43,2.05-1.91,4.42-3.47,6.56-5.29,6.38-5.42,6.38-9.91-1.04-16.95C11.84,338.59,7.76,344.55,0,348.34v-4c4.63-2.08,7.84-7.21,6.84-11.71-.83-3.75-.92-7.48-1.02-11.27-.12-4.58-2.5-8.08-5.82-11.02v-5c1.55.61,3.75,2.52,3.77-1.06.03-4.52,3.04-7.26,5.48-10.31,2.39-2.99,4.66-6.01,6.59-9.34,2.34-4.05,4.58-8.21,9.8-9.67,2.44-.68,4.77-2.47,6.66-4.27,11.28-10.75,24.72-9.66,38.39-7.17,4.87.89,9.45,1.56,13.61-2.15,7.71-6.88,12.83-15.53,17.24-24.68.72-1.49.52-3.31-.04-4.91-2.39-6.83-3.51-13.97-7.37-20.45-4.01-6.74-2.46-13.3,2.45-17.16,15.58-12.24,32.59-21.21,52.52-24.2,4.59-.69,8.88-3.44,13.66-4.3-8.42-2.51-14.28-7.18-16.55-15.71-.45-1.7-1.49-2.76-3.11-3.63-6.95-3.72-12.92-8.29-13.28-17.17-.09-2.21-1.64-3.58-3.24-4.81-.89-.69-1.81-1.69-3.11-1.06-1.4.68-1.72,2.04-1.5,3.41.53,3.26-.8,6.23-1.18,9.34-.64,5.26-3.35,10.14-2.71,15.63.76,6.52-2.79,11.62-6.51,16.12-4.65,5.62-10.11,10.59-15.52,15.53-2.11,1.92-3.58,4.99-7.06,5.11,6.27-6.77,12.68-13.41,18.76-20.34,4.46-5.08,8.67-10.21,8.28-17.88-.48-9.3,2.35-18.42,2.17-27.82-.09-4.63,4.98-8.95,8.05-7.65,5.62,2.37,10.37,6.19,12.61,12.01,1.69,4.38,2.31,9.06,7.47,11.2,2.41,1,3.13,3.76,3.76,6.22.74,2.9,1.59,5.79,2.16,8.73.95,4.96,5.03,6.85,8.9,7.68,3.95.84,7.56-1.07,10.03-4.98,2.46-3.89,2.46-8.75,5.22-12.31,3.11-4.02,4.49-8.72,4.92-13.43.5-5.47,2.44-10.28,4.52-15.16,1.49-3.51,4.46-6.25,5.35-10.07,2.01-8.66,7.95-14.49,14.81-19.19,9.17-6.28,16.81-8.62,26.35,2.02,2,2.23,4.15,4.33,6.35,6.36,3.65,3.37,11.84,5.91,16.17,3.44,5.52-3.15,10.42-7.13,14.54-11.9,5.42-6.27,10.43-12.97,16.81-18.24,5.9-4.86,9.74-10.57,11.93-17.87,2.14-7.14,5.41-7.69,10.58-2.67,1.37,1.33,2.14,2.9,2.96,4.54,1.87,3.75,4.56,6.58,9.03,6.96,3.01.26,5.3,1.89,7.42,3.79,2.98,2.66,5.86,5.43,8.76,8.17,3.11,2.93,7.11,3.33,10.07,1.06,4.68-3.59,9.41-7.28,12.51-12.69,2.59-4.51,3.97-9.35,5.8-14.09,2.29-5.92,6.18-11.32,9.9-16.57,4.5-6.35,7.46-6.71,14.38-3.15,2.5,1.29,5.24,3.25,7.76,3.09,4.21-.26,7.71,1.06,11.5,2.28,5.88,1.9,11.66,1.42,16.92-2.29.95-.67,2.11-1.04,3.04-1.71,2.55-1.85,5.03-2.2,7.85-.45,7.02,4.35,14.76,5.49,22.87,4.7.49-.05,1.02-.08,1.5.04,5.9,1.49,9.73-1.01,12.91-5.9,3.07-4.72,6.55-9.8,11.89-11.75,11.09-4.04,22.19-4.82,31.37,4.82,2.2,2.31,4.11,3.22,6.73-1.31-1.78,7.23,2.54,6.25,5.78,6.03,4.04-.27,7.96.68,10.87,2.95,6.25,4.89,12.09,3.02,18.17.24,1.36-.62,2.67-1.59,4.09-1.79,8.14-1.13,12.48-7.15,16.76-13.07,2.46-3.4,5.17-6.49,8.37-9.16,1.84-1.54,3.7-1.77,5.91-.35,9.85,6.35,17.62,14.48,22.49,25.27,1.02,2.27,2.28,4.46,3.67,6.53,4.86,7.27,10.6,8.89,16.11,4.07,7.6-6.64,15.78-12.64,22.52-20.27,4.41-4.99,7.77-4.82,13.14-.38,2.66,2.19,5.4,4.83,8.55,5.77,7.12,2.12,13.03,5.73,17.76,11.32,2.71,3.2,6.39,5.57,10.01,6.2,5.03.88,9.58,2.76,13.94,4.85,5.76,2.76,10.34.92,14.69-2.22,7.16-5.18,15.06-6.57,23.61-5.84,5.97.51,9.66,4.3,12.88,8.73,3.32,4.56,7.57,8.81,12.75,9.78,7.24,1.36,14.86,1.05,22.15-1.58,4.26-1.53,8.52-4.49,13.35-2.27,10.73,4.93,20.19,12.03,29.54,19.02,5.05,3.77,9.05,5.17,14.85,2.93,5.19-2,9.92-.08,13.6,3.8,3.27,3.45,7,6.51,4.15,12.65-2.6,5.61.61,9.73,6.79,10.99,5.62,1.15,9.8,4.72,13.53,8.85,3.73,4.13,8.16,7.18,13.34,9.31,3.04,1.25,6.34,2.6,8.63,4.83,7.79,7.57,16.68,12.84,27.16,15.8,3.57,1.01,6.59,1.24,10.08-.14,6.91-2.73,13.91-5.01,20.46,1.21,3.73,3.53,8.13,6.32,12.05,9.58,3.95,3.3,9.41,6.14,10.14,11.88,1.34,10.58.76,20.89-7.08,29.49-3.8,4.17-3.51,9.79.87,13.35,5.86,4.76,10.89,11.04,18.7,12.73,5.95,1.29,11.69,3.33,17.51,4.68,11.98,2.77,22.75,8.11,33.7,13.21,5.53,2.58,8.21,7.25,6.54,10.83-4.06,8.71-7.63,17.71-14.83,24.58-3.18,3.03-3.89,7.13-2.54,11.12,1.22,3.58,1.35,7.13,1.56,10.79.18,3.27-.06,6.99,2.17,9.54,4.82,5.52,11.16,9.12,17.64,12.4v7c-6.15-4.4-11.97-9.41-18.55-13.04-6.42-3.54-6.85-8.77-6.56-14.78.16-3.36-.25-6.59-1.58-9.76-1.39-3.31-1.59-6.68.2-10.1,4.42-8.47,10.28-16.09,12.43-25.86,1.71-7.74-3.87-15.41-12.23-14.62,3.58,4.3,3.25,5.16-1.02,9.1-10.41,9.64-22.96,16.35-33.96,25.19-5.44,4.37-10.14,3.78-16.06-.11-5.71-3.76-10.72-8.25-15.63-12.99-3.48-3.36-5.57-2.88-6.63,1.75-1.84,8.07-7.64,11.63-14.4,14.47-5.58,2.34-8.37,7.59-5.17,11.23,3.56,4.05,3.79,8.63,4.32,13.37.35,3.17.97,5.89,4.02,8.05,11.87,8.4,21.7,18.93,30.44,30.5,3.88,5.13,2.76,10.99-2.76,14.48-7.63,4.82-14.36,10.45-19.68,17.94-4.89,6.88-9,13.52-6.27,22.46.83,2.72.21,5.81-1.12,8.29-6.51,12.11-6.63,25.09-5.68,38.27.21,2.94,1.25,4.89,4.27,3.17,8.66-4.92,14.77-.1,21.09,4.88,6.13,4.83,11.51,10.36,16.77,16.09,3.66,3.98,7.6,3.85,11.93.76,4.57-3.27,9.01-6.76,14.54-8.52,5.46-1.74,9.94-4.8,13.65-9.5,4.02-5.09,7.5-10.6,13.55-14.19,5.32-3.16,9.11-8.77,7.71-15.65-1.03-5.06.79-9.18,2.79-13.31,1.99-4.1,2.1-7.83-.21-11.78-2.27-3.88-3.81-8.66-1.57-12.38,3.56-5.9,6.03-12.63,11.37-17.39v13c-3.79,1.77-5.85,5.21-5.14,8.89.83,4.22,2.38,8.52,5.14,12.11v4c-5.04,4.48-6.49,10.35-5.66,16.66.61,4.64.87,9.24.76,13.88-.1,3.91,1.39,6.73,4.91,8.46v18c-2.17.23-3.56,1.69-4.94,3.15-5.29,5.6-11.5,9.9-18.25,13.61-5.51,3.03-11.03,6.24-15.87,10.2-2.61,2.13-6.74,4.73-6.1,8.59,1.64,9.83-1.44,20,2.48,29.62,1.36,3.34-.02,6.38-1.64,9.45-2.86,5.42-6.75,10.18-9.02,16.04-2.37,6.11-7.35,9.9-13.91,11.84-7.4,2.19-14.9.99-22.31,1.74-8.01.81-16,1.86-21.33,9.6-3.83,5.56-8.59,10.54-13.31,15.4-4.84,4.99-5.46,8.22-1.33,13.87,1.49,2.04,3.07,3.98,3.45,6.54,2.63,17.57-8.08,29.33-25.75,30.37-8.06.47-14.51,3.8-20.77,8.39-6.48,4.74-6.31,11.11-5.14,17.87.63,3.64,3.05,6.27,6.29,7.16,7.51,2.06,12.31,7.37,17.29,12.74,3.64,3.92,5.29,9.58,11.12,11.65,11.11,3.93,21.34,3.49,27.45-7.23.71-1.24,2.13-2.08,3.24-3.07,3.73-3.32,7.96-2.91,11.46-.32,8.26,6.11,16.73,12.03,23.42,20.04,4.88,5.84,9.74,6.33,16.2,2.16,2.22-1.43,4.23-3.67,7.07-3.39,6.69.66,12.33-2.03,17.95-4.99,3.16-1.66,6.58-1.78,9.65-.37,4.94,2.28,9.04,1.3,12.81-2.17,2.79-2.56,6.24-3.58,9.77-4.48v10c-2.4.03-3.7,1.38-5.12,3.29-4.21,5.69-8.2,11.58-16.9,11.12-4.18-.22-8.39,1.59-11.9,4.54-2.65,2.23-5.78,3.84-8.81,5.59-5.37,3.1-11.39,4.86-15.76,10.07-3.97,4.73-10.15,4.19-15.79.76-7.13-4.35-14.88-7.29-22.92-9.48-3.07-.84-6.27-.58-8.28,1.9-2.45,3.02-5.03,6.02-7.31,9.09-5.33,7.17-11.68,12.25-19.99,15.7-7.17,2.98-13.15,1.42-17.7-3.47-5.56-5.96-11.15-4.7-18.06-3.82-9.57,1.22-18.57,3.57-27.83,6.07-7.82,2.11-15.12,3.57-21.36,9.03-2.24,1.95-5.21,4.46-8.5,3.06-9.84-4.21-20.83-5.88-29.27-13.25-3.37-2.95-6.58-2.38-9.58.91-4.34,4.75-8.36,9.96-14.77,12.18-4.42,1.54-8.83,3.17-13.61,3.43,8.63,2.75,17.59,1.3,24.3-3.62,5.13-3.76,9.93-4.62,14.1-.57,6.7,6.49,14.8,10.47,22.59,15.14,5.92,3.56,11.43,5.31,18.01,1.38,2.59-1.55,5.54-3.52,9.31-2.32,5.8,1.85,11.73,1.94,17.57-.27,2.56-.97,5.51-1.23,7.86-.25,4.85,2.03,9.79,1.62,14.74,1.62,5.23,0,9.11,2.58,12.6,6.11,3.12,3.16,6.13,6.46,9.49,9.35,5.36,4.61,18.1,2.13,23.8-4.66,3.94-4.7,7.42-9.79,11.31-14.55,1.88-2.31,4.4-4.82,7.6-3.24,7.73,3.83,15.63,7.46,21.94,13.63,2.49,2.44,5.13,4.74,7.73,7.06,2.88,2.58,5.86,2.75,8.98.33,4.72-3.67,9.8-6.7,15.79-7.73,2.7-.46,4.97-1.64,7.35-2.9,5.06-2.67,9.98-7.3,16.12-5.06,6.1,2.23,9.73-.72,13.5-4.28,2.51-2.37,5.2-4.12,8.8-3.92v4c-2.62.73-4.78,2.16-6.84,3.96-4.56,3.99-9.15,7.06-16.1,5.79-5.04-.92-10.65-.17-14.92,3.95-1.03,1-2.54,2-3.89,2.09-7.89.48-13.96,4.87-20.25,8.89-3.37,2.15-6.5,2.35-9.79-.87-6.64-6.5-13.51-12.58-22.06-16.85-8.58-4.29-12.84-3.4-17.92,5-4.16,6.86-8.4,13.51-17.58,15.52-9.18,2.01-14.85.81-20.13-6.92-.84-1.24-1.81-2.39-2.68-3.6-2.4-3.33-5.44-5.16-9.75-4.86-3.98.27-7.83-.39-11.79-1.38-4.31-1.08-8.5-4.14-13.44-1.81-4.31,2.03-8.83,2.51-13.61,1.42-4.71-1.07-9.1-1.2-13.75,1.86-3.52,2.32-8.67,3.52-12.87.86-8.95-5.66-19.21-9.02-27.25-16.36-3.2-2.92-8.44-5.28-12.28-1.64-6.75,6.39-14.79,4.88-22.59,5.22-5.93.26-10.57-2.56-14.07-7.18-1.9-2.51-3.52-5.24-5.19-7.91-4.62-7.4-10.51-10.47-17.86-8.8-5.41,1.23-10.2,3.68-14.06,7.94-8.75,9.65-11.61,10.15-23.35,4.9-1.18-.53-2.55-1.1-3.78-1.01-5.67.45-9.82-2.55-13.9-5.78-3.26-2.57-6.15-6.52-9.81-7.46-7.11-1.83-13.15-5.14-19.04-9.21-4.09-2.83-7.95-2.22-10.78,2.03-5.93,8.91-14.67,14.82-22.81,21.32-6.23,4.98-11.21,4.12-15.53-2.47-3.53-5.39-6.65-11.06-9.98-16.58-.69-1.14-1.58-2.67-3.02-2.06-1.86.79-.4,2.29-.03,3.4,3.19,9.59,9.45,17.41,14.65,25.88,3.46,5.62,8.02,7.58,13.78,6.35,6.75-1.43,13.77-2.21,19.92-5.83,5.57-3.28,10.81-2.37,15.76,1.45,2.89,2.23,5.98,3.99,9.33,5.58,5.93,2.82,12.05,5.87,15.03,12.39,3.76,8.22,8.56,15.34,17.85,18.13,1.39.42,2.65,1.4,3.85,2.28q11.06,8.07,21.68-.05c.13-.1.25-.22.39-.32,8.14-5.94,17.15-3.21,25.92-2.45,1.06.09,2.21,1.46,2.95,2.51,2.66,3.79,5.17,7.69,7.72,11.56,3.75,5.66,8.09,9.13,15.78,9.31,8.23.19,14.31-3.33,20.47-7.41,6.06-4.01,9.12-4.01,14.53.99,3.81,3.52,7.9,6.51,12.8,8.5,3.47,1.41,7.1,2.51,10.19,5.03,4.31,3.52,9.34,3.67,13.85.27,4.93-3.72,10.35-4.1,16.11-3.51,3.66.38,7.38.33,10.78-1.1,3.91-1.65,8.13-1.81,11.73-.62,4.94,1.64,9.81,1.53,14.76,1.56,4.77.03,8.52,1.59,11.6,5.48,5.4,6.81,11.19,12.79,21.38,8.58,4.48-1.85,9.12-3,12-7.36,2.38-3.6,4.98-7.06,7.33-10.68,4.4-6.78,8.8-7.61,16.01-4.26,8.8,4.09,15.83,10.31,22.61,16.93,3.43,3.34,6.57,3.72,10.49.67,3.64-2.83,7.17-6.21,11.82-7.2,5.32-1.13,9.95-3.38,14.51-6.27,3.69-2.34,7.69-5.31,12.5-3.17,4.34,1.92,7.58.26,11.04-2.13,3.63-2.51,6.77-6.02,11.57-6.48v6c-3.43-1.52-6.05-.11-8.57,2.18-4.2,3.81-8.4,7.39-14.81,4.25-2.04-1.01-4.55-.23-6.69,1.02-5.3,3.11-10.72,5.97-16.52,8.06-3.23,1.16-6.77,1.23-9.53,3.94-7.05,6.93-12.92,6.91-19.75-.22-5.62-5.87-12.22-10.24-19.25-14.09-5.63-3.08-8.24-2.51-12.84,1.98-2.8,2.73-4.58,6.13-6.57,9.36-8.68,14.07-24.28,16.07-35.68,4.48-3.25-3.31-7.1-7.92-11.29-7.27-8.03,1.23-15.4-2.35-23.12-1.49-5.4.61-10.62,2.54-16.2,1.93-6.31-.68-12.23.34-17.39,4.41-2.64,2.08-5.53,1.97-8.44.47-4.42-2.28-8.75-4.74-13.29-6.75-5.38-2.38-10.51-5.04-14.47-9.51-1.85-2.08-3.89-2.32-6.68-1.98-6.48.8-10.65,6.08-16.54,7.86-6.95,2.1-13.8,3.11-20.48-1.11-4.26-2.69-6.72-6.52-9.34-10.74-2.47-3.98-4.92-9.56-10.23-10.16-9.14-1.02-18.58-2.32-26.05,5.81-4.84,5.26-11.84,4.89-16.74-.28-1.89-2-3.99-3.56-6.54-4.4-9.73-3.22-15.69-10.12-19.45-19.34-1.42-3.49-3.77-6.42-7.17-8.04-6.04-2.88-11.57-6.51-16.93-10.47-3.84-2.84-8.15-3.32-12.2-1.01-3.01,1.72-6,2.95-9.29,4.05-3.43,1.14-6.9.71-10.22,1.83-7.31,2.47-11.57.72-16.42-5.16-4.18-5.06-6.45-11.24-10.38-16.35-4.55-5.91-7.81-12.2-8.81-19.7-.54-4.03-4.21-4.78-7.49-5.36-4.26-.76-7.52,1.5-10.04,4.46-4.73,5.56-9.46,11.18-13.53,17.22-2.26,3.35-3.54,7.49-4.63,11.45-1.24,4.5.68,8.36,3.43,12.02,5.03,6.68,4.91,9.18-.16,15.56-2.73,3.44-3.85,7.34-3.48,11.66.19,2.25.85,4.44,3.39,4.98,2.26.48,4.55.74,6.51-1.27,2.08-2.13,4.31-4.15,6.68-5.95,4.82-3.65,7.68-3.51,11.57,1.11,11.24,13.35,22.1,26.95,28.77,43.38,3.17,7.82,7.14,8.72,14.49,4.75,7.11-3.85,13.13-8.99,19.15-14.22,4.23-3.68,7.37-3.74,12.2-.92,3.43,2,5.5,5.28,8.16,7.95,5.22,5.23,13.04,6.81,17.46,13.03,2.3,3.24,4.92,6.13,7.98,8.79,6.16,5.35,14.32,6.93,20.71,11.74,4.38,3.3,8.36,1.7,11.38-1.92,3.91-4.68,8.98-7.3,14.42-9.43,6.46-2.52,16.17-.67,19.5,3.69,1.9,2.49,3.67,5.1,5.32,7.77,4.47,7.26,9.52,13.54,19.41,11.74,7.16-1.31,13.51-4.19,19.02-9.17,5.06-4.58,8.2-4.37,13.86-.55,6.63,4.48,12.66,10.02,20.67,12.17.61.16,1.15.65,1.7,1.03,5.86,4,11.47,3.6,16.9-.88,3.42-2.83,7.43-3.51,11.72-2.95,4.47.58,8.82,1.19,12.76-2.18,1.75-1.49,4.41-1.13,6.72-1.46,5.23-.74,10.16,2.85,15.15,1.36,7.79-2.33,12.76,1.06,17.71,6.42,1.86,2.01,4.52,3.63,6.83,5.33,2.97,2.19,7.22,1.34,10.71.79,6.69-1.05,13.28-2.51,16.78-9.78,2.36-4.9,6.07-9.07,9.65-13.25,2.21-2.58,4.31-3.19,7.39-1.86,9.07,3.9,17.56,8.85,24.28,16.07,6.08,6.53,10.6,5.6,16.79.61,3.22-2.59,6.62-4.33,10.4-5.58,3.15-1.04,5.94-2.6,8.79-4.38,4.98-3.11,10.19-6.68,16.62-5.41,4.96.98,9.2-.45,13.03-3.27,2.85-2.09,5.81-3.81,9.18-4.87v4c-3.41-.14-6.25,1.33-8.38,3.75-3.03,3.42-6.67,4.52-11.1,4.43-4.98-.1-10.28-.23-14.45,2.83-4,2.94-8.39,4.79-12.95,6.24-4.34,1.39-8.13,3.34-11.77,6.17-5.77,4.5-12.17,3.8-17.25-1.77-5.98-6.56-13.57-10.64-21.18-14.7-2.92-1.56-6.7-1.79-8.69,1.15-3.02,4.45-6.96,8.11-9.57,12.96-6.17,11.45-23.62,14.56-33.3,6.31-1.51-1.29-2.65-2.99-4.07-4.39-3.18-3.14-6.85-5.62-11.51-4.77-5.18.94-10.27-.02-15.39-.18-4.08-.13-7.84.19-11.59,2-2.48,1.2-5.22,2.78-8.12,1.9-6.38-1.94-12.05-.89-17.31,3.15-.86.66-2.14.86-3.27,1.07-12.09,2.24-21.24-4.68-29.7-11.14-7.66-5.85-11.25-7.44-18.73-1.97-5.23,3.82-10.5,6.8-17.24,8.09-6.85,1.31-11.63.01-15.95-4.96-1.74-2.01-3.29-4.17-4.94-6.23-3.36-4.18-5.41-9.86-11.27-11.49-6.68-1.86-12.78,1.24-18.91,3.01-2.52.73-4.64,3.16-6.69,5.09-5.24,4.91-9.31,5.45-15.72,1.92-3.47-1.91-6.87-3.82-10.71-5.15-5.31-1.83-9.97-4.84-13.22-10.03-3.36-5.38-8.12-9.71-14.29-11.98-5.07-1.86-8.64-5.19-11.44-9.83-3.25-5.39-10.4-6.04-14.42-1.38-5.45,6.3-12.05,10.8-19.6,14.19-7.93,3.56-11.55,2.72-15.49-4.96-3.74-7.3-5.6-15.36-10.79-22.17-6.05-7.94-12.76-15.18-19.69-22.27-1.4-1.43-3.96-2.39-5.5-.95-2.88,2.69-6.99,3.69-9.3,6.98-1.35,1.93-2.17,4.72,1.29,4.74,8.49.06,14.33,4.84,19.73,10.32,4.03,4.09,9.67,7.96,10.16,13.76.84,9.87,6.12,18.28,7.54,27.77.92,6.16,5.38,10.36,7.68,15.75,1.44,3.37,3.02,8.1,8.21,8.56,7.55.67,14.77.1,21.8-3.4,11.2-5.57,13.44-3.17,19.27,4.57,3.87,5.14,8.49,9.34,15.38,9.79,1.02.07,1.75.02,2.51,1.01,6.19,8.03,13.58,14.34,23.85,16.59,2.56.56,5.21,1.4,7.42,2.76,5.39,3.32,9.17,3.77,13.17-.04,5.68-5.42,11.67-8.88,19.91-9.98,7.75-1.03,13.27.5,16.91,6.87,3.43,6,9.02,9.57,13.68,14.18.41.4,1.31.65,1.85.5,5.09-1.35,10.57-.16,15.5-3.08,4.02-2.38,7.8-5.01,11.2-8.13,3.72-3.41,7.15-4.22,11.37-.78,4.86,3.96,9.39,8.43,15.58,10.51,3.28,1.1,6.73,2.12,9.58,3.98,4.22,2.75,8.09,2.73,11.97-.05,5.63-4.04,11.73-6.18,18.7-5.26,4.32.57,8.23-.75,11.96-2.65,2.02-1.03,4.12-1.69,6.25-1.27,6.12,1.2,12.07,1.54,18.33.1,4.76-1.1,7.8,3.03,10.65,6.24,5.9,6.63,11.97,12.31,21.83,7.59,4.14-1.98,8.93-2.88,11.69-7.06,2.91-4.42,5.61-8.97,8.53-13.39,4.06-6.15,7.74-6.89,14.64-3.97,8.27,3.5,15.16,8.72,21.31,15.2,5.26,5.53,12.44,5.3,16.62-.95,2.56-3.83,6.05-4.7,9.77-5.81,4.09-1.22,8.04-2.24,11.43-5.42,3.11-2.92,8.05-5.16,11.85-3.7,7.08,2.72,11.56-.81,16.2-4.55,2.51-2.02,4.79-4.08,8.17-4.24v4c-3.34.2-6.18,1.89-8.41,4-3.59,3.38-7.58,4.33-12.3,4.15-5.19-.19-10.17-.59-14.62,4.03-4.37,4.54-11.56,4.54-17.08,7.6-1.91,1.06-3.86,1.92-5.3,3.57-5.97,6.88-11.73,6.21-18.74-.62-6.38-6.22-13.25-11.58-21.39-15.35-2.53-1.17-4.09-.61-6.33.67-6.45,3.66-8.37,10.61-12.29,16.07-7.16,9.98-25.99,15.86-36.86.71-2.36-3.29-4.9-4.86-9.16-4.53-5.29.41-10.66.1-15.97-.21-5.29-.31-10.31.5-14.93,3.03-2.97,1.62-5.87.54-8.8.36-5.05-.31-9.89-.8-12.72,5.05-1.21,2.5-10.89,2.71-14.51,1.01-5.52-2.58-11.09-5.08-16.67-7.55-3.29-1.46-4.93-4.8-7.99-6.64-6.47-3.89-6.96-4.27-12.5.72-7.5,6.75-15.94,10.47-26.15,10.11-3.45-.12-6.6-1.22-8.28-3.86-2.85-4.49-7-7.95-9.42-12.75-2.22-4.39-10.19-7.1-15.48-4.98-3.1,1.24-6.1,2.24-9.42,2.75-2.61.4-4.77,2.35-6.53,4.39-6.3,7.3-10.77,8.25-18.98,3.44-2.76-1.61-5.47-3.09-8.58-3.8-5.36-1.23-9.66-4.04-13.3-8.2-5.74-6.56-14.39-8.49-21.5-12.9-3.09-1.92-5.45-4.96-9.12-5.97-6.3-1.73-9.86,2.91-13.84,6.2-5.8,4.8-12,8.81-19.23,11.04-3.6,1.11-6.64.37-9.67-2.19-6.12-5.18-8.12-12.81-11.76-19.37-2.39-4.3-5.2-8.16-8.42-11.61-2.91-3.13-6.33-5.79-9.15-9.13-3.49-4.12-7.19-3.99-11.02-.21-1.17,1.16-2.22,2.44-3.4,3.61-3.49,3.46-7.15,6.31-12.64,5.54-3.1-.43-6.33-.24-9.49-.03-8.44.57-14.76-2.95-19.43-9.76-1.73-2.53-3.74-4.83-6.58-5.94-9.04-3.56-14.23-10.93-17.69-19.22-3.26-7.81-7.8-13.07-16.18-15.33-4.88-1.32-9.18-4.84-14.68-3.7-3.69.77-6.7,3.46-10.69,3.56-1.99.05-4,.59-5.89-.29-10.58-4.9-21.06-10.08-27.05-20.81-5.64-10.1-14.11-17.47-22.57-24.98-10.31-9.15-22.14-16.47-31.59-26.66-4.47-4.82-10.35-5.49-15.92-2.71-5.85,2.92-10.89-.79-16.31-.8-1.57,0-3.13-1.01-4.72-1.43-5.03-1.31-9.57-7.43-7.73-12.21,3.25-8.43.54-15.98-1.68-23.81-2.35-8.26-6.88-15.01-13.16-20.78-4.03-3.71-7.86-7.63-10.9-12.29-5.25-8.05-13.26-13.46-19.8-20.28-4.54-4.73-5.47-11.19-6.77-17.22-.5-2.34,2.21-4.63,4.35-6.31,2.61-2.06,5.37-3.96,7.75-6.26,4.28-4.15,4.36-10.27-.6-13.29-9.28-5.63-18.51-11.81-30.17-11.56-14.93.31-26.61-6.85-36.67-16.96-3.86-3.89-3.6-9.29-3.21-14.61.62-8.63,4.62-16.85,3.6-25.55-1.24-10.62-4.54-20.98-10.32-29.85-7.15-10.97-21.88-8.77-27.06,3.16-2.85,6.55-6.37,12.81-9.26,19.34-5.22,11.76-23.94,14.71-33.56,11.71-8.83-2.75-17.96-1.73-26.95.07-12.75,2.55-19.56,12.3-26.56,21.83-7.99,10.87-7.98,11.16,1.21,23.73,3.39,4.65,5.52,9.87,6.64,15.47,1.3,6.48-1.41,11.35-6.47,15.15-11.88,8.94-21.87,20.11-34.24,28.54-5.87,4-5.83,6.72-1.96,12.6,2.91,4.42,6.01,8.39,5.34,14.43-.32,2.91,1.95,6.38,4.38,8.67,8.05,7.6,9.32,12.54,1.43,22.17-3.71,4.53-7.27,9.01-12.98,11.22-4.8,1.86-7.53,1.04-9.8-3.45-.67-1.33-1.19-2.74-1.79-4.1-1.27-2.88-3.68-5.92,1.52-7.62.86-.28.32-2.27,1.79-2.72,1.67,1.96.84,4.21,1.01,6.27.34,4.04,2.39,5.26,5.96,3.46,5.22-2.63,7.01-7.74,4.5-13-1.14-2.39-2.44-4.7-3.66-7.04,5.2,1.18,4.7,7.14,7.86,9.95.46-.26.65-.3.73-.42,2.41-3.51.98-6.16-1.8-8.66-5.23-4.71-10.31-9.58-9.84-17.48.3-5.07-2.35-8.62-5.63-12.02-3.13-3.25-3.15-7.03-.5-10.42,2.93-3.76,3.72-7.98,4.27-12.5.47-3.91,1.29-7.97,5.94-9.41-.73,3.43-3.28,6.19-3.61,9.77-.12,1.3-.75,2.95.53,3.73,1.4.85,2.51-.53,3.29-1.56,1.28-1.68,3.15-2.43,4.88-3.4,9.13-5.11,18.1-10.4,26.24-17.1,9.55-7.86,8.9-20-1.86-25.99-2.31-1.29-4.81-2.25-7.11-3.57-5.88-3.35-12.52-5.28-17.81-9.76-5.27-4.45-5.92-8.53-2.28-14.27,5.68-8.96,14.03-14.91,22.78-20.36,4.26-2.65,8.92-5.82,9.06-10.6.2-6.67.71-13.55-1.07-20.25-2.26-8.5-10.52-13.63-12.2-22.54-.62-3.31-2.49-6.45-4.32-9.48-4.06-6.71-3.85-9.86,2.31-14.61,9.16-7.07,16.02-16.3,24.17-24.3,5.2-5.11,5.97-9.1,2.14-15.05-4.6-7.14-5.76-14.65-5.23-22.81.33-5.1-.71-10.43,2.31-15.04,4.01-6.11,4.14-12.7,3.4-19.65-.31-2.84.26-5.84,2.22-8.48,5.07-6.84,8.01-15.64,18.46-17.74-5.11-3.24-8.26-1.49-11.45,1.35-3.55,3.16-6.02,7.11-8.56,10.97-3.98,6.06-8.17,11.85-8.64,19.79-.32,5.47-2.09,11.16-5.57,15.84-2.18,2.92-3.03,6.32-3.67,9.71-1.82,9.63-2.61,19.36-2.31,29.19.22,7.19-6.89,15.36-13.98,16.2-2.63.31-4.6,1.47-6.78,2.75-6.59,3.86-12.18,9.18-19.03,12.68-3.38,1.73-6.63,3.87-9.23,6.77-2.03,2.26-3.12,4.61-1.17,7.61,4.71,7.21,8.75,14.94,14.07,21.66,5.95,7.51,14.91,13.15,12.48,24.81-.17.82.69,1.83,1.02,2.77,2.22,6.42.68,11.69-4.66,15.87-8.09,6.34-16.27,12.46-22.59,20.87-5.9,7.86-4.16,13.3,4.37,17.01,2.86,1.24,5.91,2.21,7.51,5.25-3.82-1.62-7.78-2.98-11.44-4.92-10.77-5.73-9.7-10.16-3.86-17.62,6.44-8.22,13.9-15.12,22.47-20.96,2.55-1.73,5.1-3.84,5.12-7.02.05-6.76.29-13.62-1.46-20.22-.62-2.33-1.79-5.2-3.64-6.4-10.79-6.97-14.54-19.12-21.72-28.71-3.49-4.66-2.14-9.98,2.63-13.45,2.41-1.76,5.03-3.23,7.51-4.91,5.12-3.48,10.21-7.02,15.31-10.53-6.79-1.05-13.32.12-18.16,3.75-6.38,4.79-13.22,8.79-19.7,13.35-5.29,3.73-8.66,8.11-5.72,15.15,1.07,2.55,1.45,5.52,1.49,8.32.09,5.1,2.22,9.13,4.99,13.26,2.34,3.51,5.96,6.57,6.1,11.24.14,4.58,1.44,8.85,2.82,13.13,1.89,5.85-.06,10.78-5.12,14.69-7.3,5.64-15.76,9.79-21.29,17.73-6.38,9.15-6.63,8.98-.49,17.64.09.13.1.32.15.47ZM191.93,190.38c-.53,2.91-2.66,4.95-4.21,7.23-4.94,7.25-4.46,16.34,1.69,23.32-.88-5.61.22-11.06.87-16.37.43-3.56.53-8.63,5.67-10.13-6.06,13.8-3.25,28.42-3.83,42.71-.15,3.65-1.13,6.65-3.25,9.68-5.99,8.58-13.96,14.24-23.57,18.12-3.84,1.55-7.34,2.51-11.52,1.73-3.2-.59-6.55-.44-9.87.52-4.73,1.37-9.57,2.64-14.44,3.16-7.6.8-12.55,4.47-15.31,11.55-1.69,4.33-3.52,8.64-5.75,12.7-2.22,4.04-3.1,8.38-2.07,12.55,1.69,6.86,3.69,13.6,4.94,20.6,1.36,7.6,1.7,14.39-4.56,20.14-4.53,4.16-8.38,8.89-11.57,14.24-2.4,4.02-4.7,8.05-6.95,12.13-1.91,3.45-3.53,6.4-3.21,10.43.51,6.41.51,12.87-5.28,17.32-5.03,3.86-5.77,8.95-4.95,14.7.26,1.81.57,3.7.31,5.47-1.27,8.55,5.76,11.65,10.36,16.55-.3-10.14,1.91-19.62,4.62-29.01,1.25-4.33,2.53-8.64,5.11-12.42,3.09-4.52,2.18-9.96,3.38-14.91,1.84-7.62,7.08-13.42,10.99-19.96,5.84-9.75,13.94-14.54,25.31-14.29,8.26.18,16.5,1.31,24.79.1,8.35-1.22,16.64-8.25,16.12-14.99-.59-7.58-.6-15.24-3.04-22.67-1.64-4.98-1.6-9.81,3.04-14.12,3.7-3.43,6.82-7.85,9.06-12.4,3.1-6.3,6.39-12.39,10.72-17.89,5.91-7.5,10.85-15.67,19.67-20.78,5.55-3.21,9.58-3.54,14.35.36,7.1,5.81,14.62,8.56,23.84,4.42,6.34-2.85,13.54-12.57,12.3-18.61-.66-3.22-2.09-6.27-2.96-9.45-1.64-6-2.04-12.53-.66-18.19,2.25-9.28,9.7-15.96,17.37-20.79,6.89-4.34,14.41-8.06,21.89-11.6,1.72-.81,3.38-1.39,5.24-1.3,9.69.43,19.47-1.21,29.07,1.44.22-1.48-1.07-1.7-1.77-2.19-9.32-6.51-20.52-6.59-31.07-8.67-3.4-.67-6.21,2.88-8.94,4.94-5.81,4.37-13.71,5.93-17.83,12.42-2.99,4.72-6.91,8.59-10.73,12.41-7.55,7.54-18.75,10.62-28.22,2.11-2.85-2.56-5.5-5.34-8.34-7.9-3.6-3.26-7.67-5.6-12.67-3.74-3.38,1.26-6.56,3.11-9.78,4.78-4.14,2.15-5.93,6.78-10.22,8.49,2.11-5.3,5.91-9.08,10.79-11.86,13.33-7.61,14.57-7.76,25.57,3.02,12.44,12.2,23.24,11.57,34.77-1.32,5.55-6.2,9.86-13.64,18.2-17.27,4.73-2.06,9.12-5.38,12.87-9.17,4.65-4.69,7.33-5.07,12.71-1.4,2.92,2,6.18,3.74,9.57,3.73,5.44-.02,9.59,2.89,13.73,5.36,6.84,4.09,10.46,4.32,17.23.18,12.05-7.37,14.94-19.47,16.15-31.99.69-7.09,1.84-13.98,4.76-20.27,3.17-6.81,8.07-11.96,16.9-11.23,6.12.51,12.34-.17,18.48.2,5.76.36,10.69-.96,15.36-4.42,4.3-3.19,9.87-6.38,14.66-5.02,7.88,2.23,14.66-.96,21.81-1.94,3.54-.49,7.34-.22,10.89-2.74,5.45-3.88,10.33-8.32,15.21-12.8,1.47-1.35,2.73-2.92,4.94-3.14,6.06-.6,10.72-4.28,15.81-7.29-2.05-.47-4.02-.42-5.99-.48-8.8-.28-16.17,1.84-21.32,10-4.66,7.37-11.18,11.81-20.83,10.1-5.96-1.06-12.41,1.16-18.13-2.02-5.95-3.3-11.21-1.45-16.23,1.84-4.47,2.93-9.4,2.76-13.95,1.52-3.62-.98-7.1-1.47-10.76-1.43-2.18.02-4.24-.23-6.29-1.2-6.31-2.98-12.01-3.41-17.51,2.45-6.79,7.24-15.06,12.9-22.77,19.15-7.68,6.22-10.59,6.76-17.33,1.51-.77-.6-1.35-1.45-2.09-2.1-3.23-2.87-6.49-5.3-11.21-5.74-4.39-.41-8.69-2.03-12.98-3.27-3.63-1.04-7.06-1.24-10.62.51-4.18,2.06-8.35,4.11-12.18,6.77-8.8,6.11-15.02,14.39-14.78,25.15.2,8.63.34,17.28.58,25.92.19,7.18-2.27,13.01-7.92,17.81-9.9,8.41-20.72,9.95-32.24,4.11-4.47-2.27-9.33-4.48-14.3-2.65-6.73,2.49-12.95,6.24-17.6,11.85-2.24,2.69-4.69,4.61-8,5.52,1.11-4.22,5.15-5.91,7.77-8.8,4.83-5.32,10.35-9.88,17.27-12.3,4.91-1.72,10.36-2.16,14.31,1.15,5.82,4.87,11.28,6.68,18.89,4.32,15.45-4.8,21.01-13.9,16.81-29.74-1,.73-.78,1.78-1.02,2.68-1.01,3.65-1.32,7.79-3.33,10.79-4.04,6.03-10.17,9.26-17.61,7.88-7.12-1.32-9.5-7.4-10.96-13.41-2.45-10.09-4.08-20.37-6.48-30.47-1.47-6.18-6.97-10.78-11.81-8.02-3.65,2.08-7.05,4.26-8.36,9.2-1.4,5.29-1.95,10.69-3.27,15.98-2.74,10.99-3.91,22.2-10.38,32.23-5.9,9.15-13.21,15.09-23.89,16.61-2.96.42-5.58,2.8-8.67,1.82-6.48-2.05-13.28-2.73-19.74-4.42-14.35-3.76-26.06-.71-36.16,9.9-5.43,5.71-6.81,15.13-3.06,22.11,2.54,4.73,6.1,8.7,9.21,13,3.53,4.87,3.67,8.23.2,13.05-2.12,2.94-4.66,5.58-6.82,8.5-9.74,13.18-21.2,24.55-34.46,34.23-5.37,3.92-11.49,6.6-16.63,10.78-4.84,3.94-4.73,7.2.46,10.65,4.17,2.77,8.48,5.38,11.5,9.43,3.66,4.9,7.21,9.86,11.28,14.46,1.33,1.5,2.92,3.76,1.99,6.33-.42,1.14-2.28,2.46-.64,3.37,2.04,1.14,2.74-1.15,3.52-2.51,4.03-7.06,4.11-14.9,3.83-22.62-.62-17.12,7.66-30.75,16.53-44.24,1.47-2.23,3.75-3.68,5.45-5.77,6.44-7.95,12.15-16.57,25.08-14.53,6.84,1.08,13.65,1.67,20.38,3.67,3.77,1.12,7.66,4.16,11.94,1.99,5.31-2.7,10.95-4.73,15.94-8.11,7.43-5.03,10.22-14.68,6.08-22.51-2.34-4.43-4.18-9.01-5.64-13.8-3.27-10.7.06-18.18,10.39-22.78Zm-13.82,152.05c3.3,1.12,5.31-.36,6.82-3.2,1.93-3.62,2.33-7.58,2.97-11.52,2.05-12.55,2.4-25.41,7.91-37.3,4.13-8.92,7.33-18.15,17.4-22.59,6.56-2.89,11.29-2.04,15.83,3.49,3.92,4.77,6.59,10.36,10.37,15.19,3.51,4.48,6.59,4.61,11.69,1.99,7.87-4.06,11.4-11.95,16.68-18.23,6.04-7.19,10.92-15.3,18.98-20.7,4.94-3.32,9.9-6.71,13.99-11.17,2.27-2.47,3.19-4.74.83-7.87-4.26-5.64-5.35-12.21-5.86-19.21-.62-8.53,6.34-15.64,16.54-12.44,3.44,1.08,6.71,1.22,10.29.66,4.5-.7,8.68.51,11.14,4.88,4.09,7.25,5.66,14.75,1.83,22.65-.74,1.52-1.28,3.03-1.36,4.75-.2,4.12,1.92,6.2,5.78,6.74,3.89.55,5.85-1.48,6.65-5.1.64-2.93-.24-5.65-1.06-8.33-3.28-10.68.61-21.9,9.62-28.45,7.53-5.47,15.01-11.05,22.12-17.04,2.92-2.46,5.7-3.83,9.4-3.44,8.62.91,17.23-.15,25.84.05,3.81.09,7-.87,10.33-2.79,4.94-2.84,9.89-6.75,16.2-4.94,10.42,2.99,20.14-.68,29.96-2.96,3.21-.74,2.91-3.07-1.52-4.96,7.22-.39,9.05-4.62,10.58-9.16.64-1.89,1.35-3.76,1.96-5.66,3.75-11.74,13.64-15.98,24.03-19.4,2.76-.91,5.55.08,7.69,2.44,2.01,2.22,4.35,4.15,6.31,6.41,2.97,3.44,6.72,3.81,10.45,2.32,5.43-2.18,10.38-1.77,15.18,1.37,1.91,1.25,3.76,1.7,6.45.25-6.1-2.82-10.79-7-17.32-7.26-8.23-.32-14.77-4.16-20.6-9.87-2.73-2.67-5.83-5.45-10.28-5.46-11.77-.05-21.87,2.67-27.07,14.8-.86,2-3.15,3.38-4.76,5.06-1.35,1.4-2.97,1.99-4.92,2.05-9.75.26-19.32.05-27.56-6.41-3.31-2.6-6.77-2.17-9.93.75-1.71,1.57-3.54,3.02-5.45,4.35-1.88,1.31-4.17,3.35-6.24,2.45-8.9-3.9-19.17-3.9-27.28-10.07-5.57-4.24-7.57-3.75-11.02,2.3-2.61,4.58-5.01,9.29-7.2,14.14-2.4,5.32-2.06,11.79-6.25,16.16-4.83,5.04-10.29,9.39-16.64,12.58-4.18,2.1-8.06,1.89-12.47.7-10.94-2.96-22.07-.74-33.12-.37-.3.01-.57.34-.89.44-7.58,2.49-14.07,7.19-21.03,10.85-6.97,3.67-12.03,10.04-14.81,17.88-2.59,7.31-.22,14.28,1.73,20.95,4.21,14.39-2.91,23.89-14.57,29.25-7.73,3.55-14.06,1.74-20.2-3.35-1.75-1.46-4.04-2.27-6.07-3.4-3.26-1.82-6.05-1.16-9.29.69-6.23,3.55-11.22,8.44-15.37,13.98-3.86,5.15-9.08,9.55-11.12,15.8-2.63,8.08-6.84,15.1-12.29,21.48-2.04,2.39-2.62,5.23-1.5,7.95,1.43,3.49,2.1,7.2,2.07,10.72-.06,8.01,3.62,16.17-.71,24.03-5.49,2.55-9.77,7.16-15.66,9.17,4.69-.85,9.16-2.02,13.13-4.73,1.6-1.09,2.95-2.14,2.69-4.31Zm598.95,13.46c2.28-11.12,2.08-12.31-.23-16.34-5.63-9.83-12.48-17.8-24.52-20.02-5.72-1.05-11.01-2.06-16.27,1.24-3.51,2.2-7.08,2.29-10.86.27-5.26-2.82-10.53-5.69-16.06-7.86-3.26-1.28-6.77-2.03-9.18-4.66-8.39-9.15-19.56-14.71-28.83-22.74-5.79-5.02-8.78-4.61-14.12.77-7.16,7.22-14.93,13.67-23.58,19.06-3.61,2.25-6.48,1.44-9.34-1.4-3.36-3.33-5.62-7.37-8.06-11.34-4.92-8.01-9.08-16.54-17.96-21.47-6.96-3.86-10.45-3.69-15.23,2.73-1.49,2-2.82,4.1-4.2,6.18-2.76,4.17-5.53,8.26-10.48,10.25-5.84,2.34-11.61,4.88-17.43,7.29-2.12.88-4.24.74-6.25-.4-4.64-2.63-9.66-3.65-14.88-2.93-6.28.86-11.3-1.46-15.89-5.33-1.81-1.53-3.73-2.64-6.26-2.71-14.6-.4-25.88,5.16-31.73,19.13-2.85,6.82-5.26,13.97-12.15,18.28-2.09,1.31-1.38,3.8-.46,5.94,1.99,4.62,1.21,8.63-2.54,12.23-4.46,4.28-10.16,6.08-15.59,8.51-6.83,3.06-14.63,4.34-19.34,11.27-2.86,4.2-5.84,8.49-10.8,10.67-7.24,3.2-9.91,8.76-8.75,16.5.61,4.04-1.95,6.68-4.43,9.53-3.29,3.77-8.22,6.58-8.47,12.41-.07,1.59-.58,3.57,1.17,4.56,1.9,1.07,3.17-.7,4.25-1.76,2.66-2.62,5.53-5.16,9.28-5.37,8.27-.46,13.76-5.41,18.7-11.09,2.85-3.28,6.08-4.97,10.29-5.05,6.92-.13,13.43-.73,20.31-3.23,8.2-2.98,13.68-7.72,18.1-14.53,4.7-7.25,10.06-13.6,19.1-15.53,7.75-1.65,15.55-3.38,22.09,3.04,4.1,4.02,8.94,4.78,14.29,4.06,3.35-.45,6.9-.54,9.79,1.01,12.01,6.47,21.53-.2,31.29-5.56,3.9-2.14,5.94-6.08,8.47-9.57,8.27-11.44,11.99-12.55,20.22-.81,6.71,9.58,12.14,20.05,19.67,29.14,3.72,4.5,8.85,5.6,12.19,1.21,6.75-8.88,16.17-15.3,22.29-24.77,1.75-2.71,4.52-4.81,7.23-6.82,2.9-2.15,5.99-2.59,8.91-1.13,3.21,1.6,6.43,1.57,9.73,1.44,6.06-.24,11.49,1.54,16.35,4.98,3.36,2.38,6.97,3.59,11.02,4.25,5.19.85,10.49.79,15.56,2.92,3.18,1.34,6.77.57,9.38-2.62,6.3-7.72,13.95-13.37,23.76-16.19,5.5-1.58,10.68-.85,14.26,3.7,2.03,2.58,3.83,5.34,6.19,8.68Zm-398.72,235.34c-2.55-7.1-1.65-11.69,3.15-15.17,3.07-2.23,6.51-3.94,9.78-5.89,12.39-7.42,27.12-9.68,39.16-18.02,7.17-4.97,16.6-3.57,24.36-7.91,7.37-4.11,15.45-6.56,20.54-14.21,3.23-4.86,5.54-10.77,11.53-13.41,1.49-.66.9-2.02.07-2.93-6.15-6.66-6.2-15.62-8.63-23.61-1.99-6.53.62-10.79,6.64-14.59,5.9-3.73,11.62-7.75,17.53-11.47,3.21-2.02,6.1-4.93,9.9-5.61,8.92-1.6,16.36-5.83,23.48-11.23,3.95-2.99,4.55-5.91,2.93-10.29-2.25-6.09-1.07-8.48,4.46-11.87,3.23-1.99,6.85-3.74,8.47-7.48,3.42-7.92,9.51-13.52,15.95-18.83,4.23-3.49,6.46-8.02,8.4-13.15,3.65-9.61,6.63-20.32,19.46-22.08,1.02-.14,2.89-.27,2.39-1.84-.87-2.74-2.98-4.82-5.24-6.49-1.85-1.37-4.12-1.42-6.09,0-1.88,1.36-3.48,2.97-4.9,4.9-3.5,4.75-6.09,10.54-12.21,12.71-5.76,2.04-11.79,3.19-17.51,5.43-2.17.85-5.02.8-7.15-.99-4.9-4.11-10.55-5.27-16.78-4.78-4.87.38-9.04-1.45-12.78-4.55-7-5.79-25.25-4.4-31.41,2.23-3.76,4.04-6.76,8.47-9.12,13.52-2.02,4.32-4.74,8.9-9.63,10.33-8.69,2.53-17.37,5.71-26.74,4.52-4.13-.52-7.18,1.35-10.2,4.11-3.82,3.5-6.89,7.66-10.63,11.18-3.85,3.63-9.41,4.1-13.77,6.72-11.69,7.01-12.28,7.37-2.74,17.47,4.75,5.03,5.17,9.08-.32,13.37-10.44,8.17-20.4,16.89-30.55,25.39-3.45,2.89-7.07,6.76-5.33,10.96,4.3,10.38,8.64,21.04,18.37,27.96,3.98,2.83,6.43,6.48,7.21,11.39.75,4.75,1.38,9.55,3.39,14.03,1.7,3.78.55,7.26-1.87,10.24-2.61,3.23-5.41,6.39-9.04,8.52-7.63,4.47-13.19,11.06-18.65,17.77-2.73,3.35-2.22,6.38,1.26,8.96,3.7,2.74,7.99,3.75,12.88,4.68Zm369.37-277.1c7.92-1.06,15.83,2.51,22.13,9.22,4.18,4.46,7.37,9.83,11.12,14.71,2.72,3.54,3.54,7.42,2.82,11.75-.32,1.96-.63,3.96-.6,5.94.06,3.97,2.36,5.84,5.8,3.94,6.87-3.8,14.79-5.62,20.23-12.22,5.22-6.35,11.03-11.24,21.02-7.71,7.71,2.72,13.57-2.48,12.46-9.33-1.42-8.72-5.08-16.32-12.69-21.59-3.37-2.33-5.27-6.13-4.1-9.93,1.39-4.54-.22-8.15-2.55-11.15-2.39-3.09-5.56-7.13-10.41-4.64-5.98,3.07-11.76,3.17-18.05,1.26-7.29-2.22-14.6-5.11-16.18-13.09-1.51-7.63-5.02-14.39-7.06-21.72-1.38-4.97-4.14-9.78-9.3-10.83-9.71-1.97-19.59-2.63-26.52,6.96-.58.8-1.44,1.39-2.1,2.13-2.73,3.04-6.47,3.75-9.52,1.77-6.56-4.26-13.95-6.65-20.78-10.23-7.96-4.18-14.28-11.46-24.12-12.11-3.21-.21-5.93-2.03-8.64-4.22-4.12-3.34-10.58-.62-15.99,5.26-6.63,7.2-13.92,13.74-21.79,19.57-4.5,3.34-6.7,2.82-10.64-1.47-4.33-4.71-7.59-10.1-10.35-15.79-3.71-7.66-10.52-11.82-17.45-15.68-4.06-2.26-9.56.87-12.33,6.58-4.75,9.8-9.48,19.34-20.93,23.3-6.5,2.25-12,7.96-19.93,3.91-2.3-1.17-5.61-.99-8.33-.58-7.6,1.14-14.45-.18-20.91-4.44-4.23-2.78-17.59-.74-20.72,2.94-2.56,3.02-4.71,6.38-7.28,9.39-2.9,3.39-5.48,7.91-9.24,9.53-8.89,3.81-11.3,11.06-12.49,19.26-.43,2.94-1.23,5.44-2.96,7.76-1.39,1.86-2.91,3.69-3.99,5.73-2.97,5.61,1.12,15,6.71,15.83,3.87.57,5.99-1.06,7.81-4.52,6.07-11.54,11.72-23.69,26.5-26.65,5.43-1.09,11.82-2.67,15.97.59,7.26,5.69,14.81,7.42,23.52,6.61,1.3-.12,3-.21,3.9.48,7.13,5.48,13.65,1.92,19.98-1.38,5.37-2.81,12.12-3.9,15.36-9.66,2.15-3.82,5.17-6.88,7.51-10.51,3.79-5.89,8.75-7.52,13.15-4.52,6.97,4.75,13.81,9.77,17.91,17.59,2.55,4.85,5.28,9.62,8.2,14.25,4.29,6.82,7.29,6.84,13.71,2.29,8.29-5.88,15.49-12.92,22.96-19.7,4.41-4,8.15-3.96,12.56.17,4.47,4.19,8.86,8.5,14.76,10.73,3.39,1.28,5.74,3.75,8.01,6.52,3.57,4.35,7.13,9.27,12.39,11.27,5.9,2.24,11.77,4.34,17.16,7.67,3.56,2.2,7.29,3.17,11.09.57,3.63-2.49,7.71-1.51,13.24-1.81Zm-258.12,216.32c-5.57.13-8.23,4.39-10.96,8.27-4.97,7.05-9.12,15.09-19.85,13.86-.61-.07-1.28.29-1.92.47-6.01,1.74-11.93,3.93-18.37,3.43-1.66-.13-3.36,0-4.83.96-13.98,9.04-30.32,13.26-44.56,21.76-2.09,1.25-4.83,2.22-4.68,5.29.14,2.82,1.8,4.54,4.34,6.13,8.41,5.27,18.48,7.99,25.37,15.5,5.9,6.44,10.07,15.26,1.86,23.26-2.14,2.09-4.14,4.33-6.27,6.44-1.71,1.69-3.22,3.64-3.32,6-.66,15.6-1.96,25.24,16.05,34.46,5.63,2.88,10.88,6.15,14.45,11.83,1.88,3,4.76,5.72,7.78,7.6,9.64,6.01,16.45,13.9,20.8,24.59,2.38,5.84,3.25,10.82,1.01,16.65-.83,2.17-1.25,5.34,1.51,6.72,2.72,1.37,5.36,3.86,9.02.72,3.4-2.91,7.66-3.13,11.34.21,2.75,2.5,5.86,4.39,9.26,5.78,6.71,2.75,11.9,7.2,16.5,12.82,3.94,4.83,8.32,9.35,14.5,11.83,7.16,2.87,11.96,8.02,13.39,16.09.66,3.73,2.6,7.18,5.77,9.66,2.26,1.77,3.91,1.29,4-1.59.15-4.84,2.73-8.26,5.56-11.84,2.44-3.08,2.8-7.21.09-10.11-3.06-3.26-5.03-7.01-6.7-10.92-1.87-4.37-2.25-9.56-.13-13.52,2.8-5.23,7.39-9.8,13.02-11.96,7.79-3,12.76-8.61,17.13-15.17,3.05-4.57,5.78-9.5,12.36-9.54,1.7-.01,2.53-1.03,1.72-2.66-1.8-3.59-3.52-7.08-8.59-7.1-3.53-.01-6.57,1.03-9.43,2.7-2.81,1.64-5.14,1.35-7.9-.22-3.89-2.21-7.6-4.83-11.96-6.14-6.15-1.85-11.5-5.06-16.17-9.44-5.58-5.24-11.23-10.41-16.7-15.76-5.54-5.42-12.19-10.2-13.33-18.68-.91-6.79-3.63-13.72.21-20.42,2.22-3.88,4.69-7.64,7.35-11.24,1.38-1.88,2-3.84.65-5.46-2.64-3.18-3.85-7.17-6.84-10.21-7.35-7.45-16.48-11.61-26.03-15.06-5.44-1.97-11.01-3.59-16.26-6.07-6-2.83-7.53-8.56-3.68-13.96,4.75-6.68,9.97-12.89,17.18-17.12,1.57-.92,2.93-2.19,4.49-3.14,9.79-5.96,10.54-8.09,8.37-19.37-.77-4.03-1.88-6.71-6.57-6.32Zm188.39,35.43c.14,3.11.29,6.13,1.2,9.27,2.39,8.29,10.27,10.37,15.86,15,8.08,6.7,18.69,8.35,27.62,13.45,3.12,1.78,6.9,3.95,10.88,1.85,7.29-3.85,15.14-3.3,22.94-3.25,5.04.03,9.19,1.83,12.73,5.59,4.35,4.62,8.16,9.62,11.62,14.9,5.55,8.46,17.15,10.14,24.94,3.62,2.17-1.81,4.31-3.66,6.52-5.43,4.91-3.95,8.74-3.9,13.08.75,6.49,6.93,13.33,13.09,21.88,17.7,7.55,4.07,13.48,3.23,19.56-1.96,4.04-3.45,8.53-4.36,13.4-2.04,1.92.92,3.47.09,5.25-.26,5.2-1.01,9.08-5.69,14.93-4.94,6.89.88,12.3-2.53,17.77-6.28,3.33-2.29,6.75-6.3,11.62-3.95,5.54,2.68,8.42,1.44,13.22-5.03,1.52-2.05,1.82-4.62,2.49-7.02,1.89-6.77-1.98-11.43-6.45-15.12-3.65-3.01-7.69-1.25-11.23,1.77-1.89,1.61-4.48,1.29-6.44-.45-1.7-1.51-2.75-3.49-2.04-5.8.74-2.39,2.35-3.81,5.09-4.05,3.65-.31,6.35,1.25,9,3.48,3.69,3.11,4.95-1,6.56-2.74,2.55-2.75-1.12-2.89-2.19-3.46-3.94-2.11-7.85-4.09-10.86-7.6-2.85-3.33-6.75-4.29-10.9-3.02-4.92,1.5-9.62,2.03-14.56-.12-2.07-.9-4.48-.28-6.73.85-4.16,2.1-8.65,4.43-13.3,3.45-6.79-1.44-12.32-.11-17.52,4.4-3.87,3.36-8.15,3.59-12.9.95-3.35-1.86-6.15-4.53-9.59-6.1-7.9-3.63-11.74-10.28-14.61-18.02-4.07-10.98-7.83-14.63-18.68-9.11-3.5,1.78-6.82,1.82-9.72-.83-2.36-2.16-4.98-3.75-7.79-5.18-3.81-1.94-6.79-4.67-8.3-8.86-1.65-4.59-4.65-8.46-7.41-12.38-3.54-5.03-8.25-9.08-13.2-12.71-4.97-3.63-16.65-.03-21,3.7-6.62,5.67-13.04,10.98-21.88,4.02-.36-.28-.95-.28-1.44-.36-8.83-1.48-16.82-4.66-23.49-10.91-2.14-2.01-4.92-4.52-7.51-4.63-6.35-.28-11.35-3.37-16.76-5.86-2.41-1.11-5.36-1.58-7.47.7-4.53,4.91-8.26,10.36-10.34,16.83-1.84,5.72-1.4,6.54,4.34,7.87,5.51,1.27,10.11,3.76,12.94,9.09,2.56,4.82,5.25,9.56,8.77,13.87,3.13,3.84,4.3,8.72,2.06,13.64-1.56,3.44-2.03,7-1.98,10.72Zm150.86-280.39c-1.73-7.43.28-12.41,4.19-16.61,6.1-6.56,6.95-14.97,8.19-23.14.59-3.89-1.01-8.15-4.69-9.84-4.9-2.26-8.62-6.17-13.46-8.4-2.16-.99-4.33-1.74-6.66-1.95-9.55-.85-18.96-2.29-28.27-4.76-3.72-.98-6.9-2.28-9.61-4.79-4.73-4.39-9.45-8.79-13.94-13.41-3.72-3.83-6.16-8.01-1.44-13.01.95-1,1.14-2.73,1.63-4.15,1.52-4.38-.11-6.9-4.63-6.89-10.12.03-18.46,3.45-23.34,12.91-1.5,2.91-3.67,5.12-6.16,7.08-1.63,1.28-2.87,1.19-5.16.33-6.27-2.37-10.45-8.18-16.94-9.77-4.48-1.1-7.58-3.92-10.49-7.12-4.46-4.89-9.41-8.67-16.31-9.62-2.83-.39-5.8-1.74-8.13-3.44-6.98-5.09-11.56-2.89-15.98,2.29-6.69,7.85-13.88,15.12-21.77,21.72-7.3,6.11-12.33,5.13-16.87-3.21-4.99-9.15-10.99-17.4-20.79-21.97-4.08-1.9-8.7-2.75-12.08.64-2.84,2.85-6.06,5.57-7.72,9.66-1.08,2.66-3.54,4.46-6.21,6.15-5.82,3.69-12.42,5.47-18.59,8.2-4.18,1.85-9.51,3.12-13.89-1.12-1.36-1.32-3.5-.76-5.32-.81-4.82-.14-10.12.97-14.36-.67-8.31-3.21-16.13-5.69-25.28-3.54-6.01,1.41-11.25,3.26-15.47,7.83-6.22,6.76-11.55,14.71-21.94,15.81-5.52.59-10.7,4.92-16.58.42-6.67-5.1-8.38-4.52-12.5,2.83-1.72,3.06-3.33,6.23-3.71,9.75-.55,5.04-1.05,10.06-3.47,14.62,2.13.89,3.36-.26,4.56-1,5.26-3.26,9.81-2.23,13.8,2.15,3.63,3.98,8.6,5.6,13.33,7.57,3.71,1.55,7.25,3.24,10.39,5.81,5.28,4.31,9.4,3.69,13.39-1.69,1.38-1.86,3.19-3.42,4.06-5.65.84-2.14,4.41-3.47,4.59-3.38,6.04,2.77,10.87-1.3,16.17-2.51,4.22-.96,8.39-1.44,12.33,1.64,4.42,3.44,9.26,5.44,15.31,4.02,3.63-.85,8.1-1.28,11.35.09,6.76,2.83,12.13.9,17.83-2.34,7.79-4.43,15.48-8.43,18.69-18.02,1.85-5.54,5.89-10.35,10.43-14.41,1.29-1.15,2.56-2.45,4.36-1.57,6.3,3.07,11.88,7.2,16.51,12.42,4.75,5.37,7.83,11.89,11.69,17.88,5.88,9.14,9.01,9.34,16.95,1.79,6.59-6.28,13.28-12.46,19.92-18.7,2.4-2.26,5.21-2.98,8.48-3.54,4.86-.82,7.43,3.18,11.29,4.12,8.43,2.05,16.34,4.98,23.24,10.57,2.88,2.34,6.52,4.45,10.09,5.06,4.97.84,9.13,2.98,13.23,5.45,5.78,3.48,6.45,3.41,11.18-1.85,3.49-3.88,7.57-6.22,12.92-7.61,4.54-1.18,8.27.95,12.36.42,6.73-.88,10.49,2.74,12.78,8.49,3.44,8.62,7.6,16.94,10.31,25.86.59,1.95,1.26,4.35,3.48,5.27,8.82,3.65,17.6,7.34,27.02,1.36,3.27-2.08,6.44-1.32,8.39,2.37,1.49,2.82,3.62,4.99,7.3,7.91Zm60.01,353.48c-5.05.89-9.71.83-14.37-.43-1.28-.35-2.57.37-3.72,1.14-2.75,1.86-5.59,3.59-8.33,5.47-3.7,2.55-7.45,3.15-11.55.88-4.65-2.58-9.45-4.91-14.06-7.55-2.71-1.56-5.52-3.17-7.08-6.1-1.68-3.16-4.38-5.42-6.83-7.9-2.17-2.21-4.43-2.41-7.18-.82-4.03,2.33-6.4,6.22-9.48,9.43-7.35,7.64-20.29,6.94-24.93-1.92-2.13-4.07-4.73-7.87-6.7-12.09-2.62-5.62-7.45-11.06-13.33-11.95-8.84-1.34-18.29-2.55-26.93,1.92-2.62,1.35-4.81,1.39-7.52.13-14.9-6.9-29.76-13.82-44.22-21.66-4.27-2.32-6.8-5.21-8.17-9.36-2.37-7.18-4.19-14.51-.55-21.86,2.94-5.93,1.26-10.86-2.9-15.44-1.11-1.22-1.95-2.7-2.78-4.14-3.79-6.63-9.15-11.24-16.55-13.45-1.46-.44-2.55-.64-3.37.89-2.83,5.25-6.73,10.08-7.81,16.06-.96,5.32-4.46,8.64-7.73,12.42-4.68,5.39-11.45,3.93-17.12,5.38-12.25,3.13-19.18,11.67-25.44,21.35-1.64,2.53-1.09,4.9,1.49,6.98,3.89,3.13,7.73,6.19,12.33,8.34,11.36,5.31,20.61,13.23,27.91,23.44,1.92,2.68,2.87,5.58.37,8.17-2.16,2.24-3.81,5.01-6.67,6.62-2.47,1.39-3.98,3.89-3.89,6.61.19,6.04,2.52,11.48,7.18,15.3,4.33,3.54,7.53-1.46,11.27-2.5.32-.09.62-.25.92-.38,9.18-3.87,16.27-9.64,18.57-19.96.33-1.49.96-3.74,2.88-3.64,2.44.13,3.63,2.44,4.06,4.53,1.45,6.99,5.56,12.19,10.23,17.31,5.23,5.75,12.37,8.85,18.02,14.04,5.04,4.63,9.48,10.39,16.93,11.73,3.31.59,6.17,2.4,9.03,4.13,5.72,3.45,10.43,3,15.39-1.38,8.41-7.44,18.44-7.36,28.71-6.1,1.45.18,2.28,1.19,3.1,2.29,3.16,4.25,6.43,8.41,9.57,12.67,3,4.08,6.5,7.47,11.99,6.58,7.97-1.28,15.86-2.79,21.66-9.43,4.65-5.33,8.26-5.2,14.56-2.22,4.76,2.25,7.06,7.57,12.4,8.81,3.73.87,7.14,2.56,10.58,4.26,6.04,2.99,11.59,2.7,16.7-2.5,1.84-1.87,3.89-5.07,6.85-4.49,8.01,1.57,15.09.13,22.21-3.82,2.59-1.44,6.54-.63,9.85-.5,5.05.2,9.81-.61,14.4-2.87-.74-2-2.49-2.32-4.02-2.69-10.37-2.49-19.4-8.32-29.42-11.75-5.62-1.92-6.86-6.29-5.91-12.2,1.03-6.49,5.03-10.95,9.38-15.79Zm-97.27-241.33c.43-3,.22-5.9-2.34-7.79-6.53-4.81-9.39-11.37-11.03-19.2-1.4-6.65-6.7-11.65-11.85-15.59-4.22-3.23-20.61.3-24.49,5.57-1.75,2.38-3.87,4.52-5.95,6.64-5.69,5.78-9.12,6.27-16.8,2.87-1.8-.8-3.88-1.7-5.73-1.51-7.61.78-13.43-2.94-19.2-6.97-2.31-1.61-4.53-3.48-7.64-3.19-5.81.54-11.07-1.5-16.39-3.38-3.12-1.11-6.24-1.21-8.68,1.69-7.55,8.96-16.08,17.05-23.15,26.45-3.53,4.71-6.79,10.01-13.39,11.14-2.35.41-1.31,1.99-.88,3.05,1.92,4.64,4.25,9.01,8.24,12.3,3.74,3.09,6.84,6.62,8.78,11.25,2.68,6.4,5.37,12.76,11.02,17.52,3.86,3.25,3.73,9.38.47,13.19-3.34,3.91-7.07,7.48-10.4,11.4-4.92,5.79-11.41,9.65-17.12,14.46-5.79,4.88-6.42,8.29-1.58,13.92,4.23,4.92,7.38,10.61,11.96,15.27,4.37,4.46,5.12,4.65,8.1-.7,4.04-7.26,8.55-14.19,13.59-20.79,3.77-4.95,8.42-7.27,12.32-4.86,6.82,4.22,13.89,7.68,21.53,10.05.89.28,1.7,1.05,2.38,1.76,4.94,5.1,10.77,8.95,17.5,11.03,4.34,1.35,8.41,3.1,12.2,5.44,4.84,2.99,8.88,1.1,12.04-2.27,3.45-3.67,7.62-6,12.03-7.76,3.55-1.42,4.38-1.97,1.33-5.13-5.73-5.93-4.71-11.72,2.24-16.51,2.19-1.51,4.22-3.26,6.42-4.74,6.82-4.57,13.7-8.95,22.51-8.12,3.34.31,6.1-1.54,8.66-3.35,4.48-3.16,8.85-6.47,12.64-10.52,4.65-4.97,5-7.63,1.56-13.72-6.83-12.09-11.28-24.85-10.88-38.92Zm-198.11,196.72c-4.75-2.57-8.35-4.19-11.59-6.35-4.45-2.98-4.96-6.4-1.85-10.63,10.91-14.81,24.86-25.2,43.1-29.13,3.46-.74,5.76-2.51,7.05-5.63,3-7.21,5.87-14.48,8.85-21.7.91-2.22.3-3.33-1.72-4.85-4.7-3.55-10.18-6.44-12.89-12.1-2.04-4.25-5.05-7.81-7.86-11.5-5.14-6.74-5.23-11.09,1.36-16.22,9.74-7.59,18.32-16.25,26.45-25.46,2.69-3.05,2.82-5.5.26-8.75-4.03-5.12-9.83-8.63-13.32-14.02-5.79-8.95-12.37-17.36-14.04-28.73-1.49-10.13-9.54-17.6-14.21-26.52-.86-1.64-2.76-2.17-4.73-2.33-8.29-.66-14.25,3.52-16.67,11.78-1.78,6.06-3.46,12.33-7.68,17.13-7.01,7.98-14.01,15.8-18.9,25.42-1.72,3.39-3.03,6.4-3.01,10.2.07,11.82-.29,12.69-11.27,16.73-7.26,2.67-13.11,8.43-20.39,10.2-11.87,2.89-21.3,9.91-31.28,16.02-7.23,4.42-7.83,8.13-4.3,15.86.69,1.5,1.52,3.03,1.78,4.62,1.77,11.11,8.4,18.03,18.46,22.29,2.56,1.09,4.83,2.78,6.69,5.07,5.3,6.51,9.66,13.8,16.98,18.6,5.18,3.4,6.11,8.22,4.02,14.44-3.35,9.95,1.69,22.24,9.74,28.94,5.39,4.49,11.85,5.1,18.01,6.14,4.29.73,8.88,2.24,13.07,1.62,6.18-.9,12.21-2.65,19.91-1.16Zm400.4-44.17c4.66,0,9.33-.1,13.99.03,5.3.14,8.88-2.27,11.01-7,.89-1.97,1.31-4.23,2.51-5.96,5.79-8.33,8.72-17.09,6.66-27.49-1.12-5.64.48-11.66-.73-17.41-1.09-5.21.66-9.51,4.58-12.4,8.01-5.9,16.26-11.51,24.72-16.74,5.85-3.61,11.24-7.63,15.89-12.63,5.39-5.8,5.36-8.05.15-14.47-.8-.98-1.3-2.61-2.99-2.15-1.65.45-1.49,2.04-1.56,3.33-.2,3.9-2.43,7.42-5.53,8.31-8.07,2.32-15.22,6.1-22.39,10.32-7.22,4.25-15.5,6.47-22.15,12.05-4.53,3.8-8.32,3.52-12.57-.3-3.11-2.8-6.56-5.02-9.9-7.44-4.01-2.9-8.22-5.42-12.04-8.71-6.85-5.91-12.17-4.31-16.44,3.85-.31.59-.67,1.16-.89,1.79-1.19,3.42-3.76,5.89-6.13,8.41-2.57,2.73-5.74,3.54-8.71.45-2.97-3.08-5.86-3-9.34-.77-2.8,1.79-6.02,2.23-9.47,2.37-3.27.14-6.41-2.07-9.32-.92-8.43,3.33-16.88,6.59-25.43,9.62-6.76,2.4-11.92,7.77-18.15,11.07-4.84,2.57-8.38,5.72-10.92,10.39-1.26,2.33-2.87,4.47-4.27,6.72-5.54,8.89-8.22,10.1-17.97,8.06-.65-.14-1.36-.01-1.98-.21-5.59-1.8-11.75-1.5-16.7-5.73-5.42-4.63-10.17-3.73-14.43,2.14-3.55,4.9-7.33,9.54-12.88,12.23-2.8,1.35-5.83,2.25-8.79,3.26-1.51.52-2.18,1.2-1.57,2.93,1.98,5.57,13.64,12.06,19.45,10.72,9.8-2.26,14.95.13,19.42,9.29,1.89,3.87,3.01,8.17,5.23,11.81,4.55,7.45,12.65,11.08,19.14,16.44,1.8,1.49,4.54,1.07,6.68-.14,2.3-1.31,4.65-2.66,6.62-4.4,3.42-3.02,7.06-3.41,11.11-1.78,2.39.97,4.88,1.66,7.26.45,5.97-3.04,12.29-3.7,18.86-3.43,3.82.16,7.78.5,11.46-.27,6.55-1.36,11.62,1.01,15.5,5.63,3.37,4,7.56,5.13,12.01,4.47,6.93-1.03,13.47-3.49,18.2-9.19,2.66-3.2,5.42-6.33,7.96-9.62,3.91-5.06,8.52-8.14,15.34-7.09,3.09.48,6.32.08,9.48.09Zm-206.35-34c2.75,0,4.95-.42,7.24-1.03,8.71-2.32,13.83-8.72,18.95-15.39,3.77-4.91,8.07-5.72,13.09-2.21,5.03,3.52,10.27,5.29,16.37,4.67,2.37-.24,4.6.43,6.8,1.32,2.89,1.17,5.7.8,7.84-1.49,2.47-2.64,5.04-5.1,6.57-8.65,2.97-6.88,7.02-12.83,15.62-13.67,2.18-.21,4.42-1.57,6.28-2.89,5.35-3.81,11.36-5.89,17.47-8.12,10.3-3.74,20.25-7.74,31.7-6.81,4.63.37,8.35-4.19,12.23-6.92.96-.68.92-2.04.76-3.26-.5-3.82-2.08-6.92-5.42-9.08-7.92-5.12-14.52-11.48-18.92-20-1.66-3.22-3.89-6.09-6.44-8.8-3.23-3.42-6.19-6.93-6.1-12.54.06-3.99-1.59-8.08-4.92-11.47-3.89-3.95-9.71-7.48-10.19-13.12-.78-9.24-1.89-18.89,2.79-27.72,3.24-6.11,1.02-12.27-5.5-14.42-6.68-2.2-12.89-5.32-18.74-9.14-2.87-1.88-5.75-3.19-9.21-3.26-2.28-.05-5.25-1.25-6.65.29-1.81,1.98.71,4.29,1.73,6.21,5.25,9.93.52,17-9.25,19.64-4.31,1.16-8.8,1.85-12.95,3.42-3.83,1.45-7.38,1.91-11.06.09-3.7-1.83-7.11-.98-10.44.93-2.91,1.67-5.75,3.61-7.65,6.32-4.69,6.7-11.28,10.18-18.84,12.62-5.93,1.92-6.49,5.4-2.02,9.81,1.18,1.16,2.54,2.14,3.86,3.15,6.43,4.91,9.31,11.04,6.84,19.17-.36,1.19-.31,2.79.18,3.93,4.18,9.79,4.68,20.74,9.81,30.25,2.96,5.47,2.16,10.23-2.39,14.45-5.24,4.85-10.57,9.66-16.35,13.82-4.55,3.27-9.87,5.83-15.58,6.04-4.57.17-8.4,1.56-12.09,3.92-10.88,6.98-8.56,11.86-.97,18.54,5.53,4.86,10.63,9.81,15.05,15.72,2.48,3.31,5.81,6.64,10.49,5.72Zm280.17,184.88c-2.72.84-5.06,1.76-7.87.64-5.93-2.36-11.69-1.95-17.01,1.91-2.31,1.67-4.68,3.19-7.77,2.84-5.28-.61-9.72,1.62-14.02,4.27-6.56,4.04-8.03,4.11-13.22-1.54-7.5-8.14-16.03-14.92-25.26-20.93-4.15-2.7-7.17-2.43-10.55,1.1-3.22,3.36-6.61,6.54-10.03,9.7-2.87,2.66-5.74,3.56-9.4,3.42-9.79-.37-18.64-2.71-24.67-11.25-3.21-4.55-7.8-5.98-12.74-4.37-4.59,1.49-9.14,1.75-13.78,1.56-4.31-.18-8.23.8-11.98,2.8-2.81,1.5-6.15,3.45-8.92,2.46-6.66-2.38-11.01,1.02-15.71,4.5-4.08,3.02-8.24,5.24-13.64,2.41-4.38-2.3-9.13-3.91-13.77-5.67-3.12-1.19-5.68-3-8.35-5.06-6.55-5.06-9.71-8.85-16.88-.91-.98,1.08-2.34,1.9-3.65,2.61-15.23,8.2-25.06,11.57-35.08-5.2-.76-1.28-1.72-2.45-2.6-3.65-3.28-4.48-7.55-6.21-13.25-6.42-8.91-.33-16.18,2.53-22.72,8.29-5.36,4.72-7.5,4.78-13.09.52-2.18-1.66-4.56-3.15-7.02-3.62-7.87-1.49-13.64-6.43-19.6-11.09-2.61-2.04-4.57-5.4-7.46-6.52-8.19-3.19-13.46-9.5-18.99-15.7-4.31-4.82-6.5-5.11-11.11-.54-6.02,5.97-13,10.24-20.68,13.65-6.46,2.87-10.07,1.81-13.29-4.59-1.61-3.21-3.04-6.52-4.55-9.78-.33,4.39-.25,8.55.46,12.6,1.32,7.52,6.2,12.02,13.07,14.96,8.07,3.45,16.43,1.74,24.62,1.69,6.17-.04,10.82,2.02,14.26,6.62,3.91,5.22,8.93,8.74,14.5,11.89,4.73,2.67,8.99,5.87,12.52,10.4,3.94,5.05,6.61,11.15,12.1,15.06,4.6,3.28,7.51,7.95,8.69,13.55.78,3.7,2.62,6.85,5.15,9.53,1.54,1.63,3.37,3.44,6.06,1.99,4.19-2.26,8.26-4.57,10.88-8.89,1.24-2.06,3.42-4.96,5.74-4.01,4.08,1.66,8.42,1.6,12.49,3.11,7.26,2.69,11.81,7.94,15.83,14.21,4.47,6.96,9.12,10.1,18.29,7.4,8.63-2.54,14.38-7.89,20.25-13.77,3.99-3.99,7.84-4.05,12.39-.87,3.75,2.61,7.13,5.84,11.61,7.3,4.41,1.44,8.84,2.83,13.23,4.33,4.55,1.55,8.49.66,11.97-2.6,1.46-1.36,3.18-2.48,4.47-3.98,2.29-2.66,5.1-3.31,8.47-3.28,3.6.03,7.49,1.03,10.74-1.21,6.39-4.4,13.47-5.29,20.94-4.76,1.15.08,2.47.16,3.45-.31,7.58-3.61,13.66-1.05,19.67,3.91,2.66,2.19,5.83,5.19,9.68,4.27,8.05-1.92,16.12-4.05,21.52-11.29,3.17-4.25,6.98-8.04,9.99-12.39,3.01-4.35,7.17-5.08,11.43-3.78,8.03,2.47,16.19,4.75,22.98,10.28,2.97,2.42,6.55,2.66,10.25.55,5.48-3.13,9.76-8.04,15.83-10.28,4.87-1.79,9.15-4.66,13.33-7.74,3.62-2.66,7.83-4.9,12.24-4.76,4.69.15,7.14-2.32,9.58-5.57Zm-163.55-333.91c-1.5,8.63,2.45,15.23,10.63,20.17,3.12,1.89,6.05,5.26,6.16,9.28.3,10.89,7.52,18.57,12.03,27.5,2.51,4.97,6.59,8.25,11.45,10.61,3.87,1.88,7.87,3.49,11.82,5.2.91.39,1.94.94,2.82.21,1.06-.88.76-2.16.38-3.26-3.68-10.68-.85-21.27,1.73-31.37,2.17-8.49,6.59-16.29,2.89-25.38-.43-1.06-.14-2.84.5-3.85,4.99-7.93,8.04-17.21,16.13-23.02,4.14-2.97,7.96-6.38,11.96-9.54,3.05-2.41,3.6-5.23,1.07-8.18-9.21-10.8-17.19-22.88-30.68-29.25-6.18-2.92-9.14-7.85-8.23-14.88.28-2.15.11-4.44-1.15-6.29-2.93-4.3-3.02-8.66-.64-13.14,1.41-2.66,1.14-3.72-2.24-4.69-7.9-2.28-13.88-6.92-17.14-15.08-2.7-6.77-4.51-14.3-11.97-18.32-2.96-1.6-6.08-1.26-9.05-2.39-5.34-2.05-10.95-3.84-16.59-4.58-7.34-.96-14.93.18-22.13-2.46-2.24-.82-4.54-.45-6.89-.12-4.07.58-8.25,2.18-12.29.24-9.83-4.7-20.57-7.85-28.81-15.33-4.13-3.75-8.65-4.12-12.9-2.08-6.89,3.3-13.89,3.17-21.23,3.59-10.68.61-14.89-6.08-19.21-13.5-.63-1.08-.8-3.13-2.4-2.62-1.79.56-1.3,2.72-.85,3.94,1.75,4.78,4.93,8.62,8.89,11.74,8.99,7.09,19.79,8.96,30.71,9.8,5.5.42,10.85.33,15.83,3.27,5.28,3.13,10.78,5.91,16.19,8.82,6.91,3.71,12.6,10.45,8.36,19.6-.75,1.62-1.11,3.56-1.09,5.35.03,4.07-1.49,7.31-3.97,10.47-3.12,3.95-5.64,8.42-4.79,13.72.77,4.84.83,9.57-.08,14.38-.56,2.98-.7,6.08,2,8.31,4.85,4.01,9.95,7.72,15.71,10.29,6.59,2.94,14.72,1.55,20.46,6.71,3.87,3.48,8.47,5.44,13.15,6.75,4.86,1.36,8.76,3.86,12.47,6.91,4.73,3.88,7.45,10.29,5.11,13.47-4.1,5.56-4.31,11.71-4.14,19.03Zm-167.25,381.8c-9.67,2.85-14.29,1.11-20.02-5.69-3.24-3.84-3.5-9.16-6.69-12.68-6.54-7.24-11.05-15.75-16.07-23.95-2.13-3.47-5.08-5.96-8.64-7.24-6.82-2.45-11.78-7.15-16.85-11.96-2.94-2.79-6.15-5.73-10.96-4.53-19.17,4.78-34.52-.37-41.29-18.96-3.42-9.39-4.82-19.36.33-28.96,1.85-3.44,1.61-7.16.48-10.69-4.4-13.76-14.89-21.52-27.33-27.27-1.39-.64-2.99-.84-4.4-.29-7.19,2.79-14.55,2.78-22.04,1.71-5.09-.72-10.32-1.3-15.2-2.47-5.11-1.22-9.52-5.19-14.37-7.71-9.72-5.07-13.36-13.32-12.97-23.84.07-1.83.05-3.67-.02-5.5-.41-10.87-6.26-18.58-14.55-24.84-.89-.67-1.92-1.65-3.14-.87-1.23.79-.78,2.03-.41,3.15,4.22,13.04-1.29,15.61-9.53,21.5-8.02,5.73-15.69,11.75-21.23,20.04-2.82,4.22-2.03,7.66,2.4,9.96,3.23,1.68,6.66,2.97,10.03,4.35,11.63,4.74,23.94,8.26,32.68,18.17,8.31,9.42,11.14,14.28,2.44,22.39-6.88,6.41-5.67,14.72-5.08,22.87.5,6.9,3.54,12.14,9.17,16.34,5.26,3.93,11.41,6.84,15.06,12.83,3.07,5.04,7.7,8.53,12.87,11.34,5.44,2.97,11.62,3.92,17.18,6.55,2.53,1.19,4.78.89,7.58.29,10.82-2.31,15.02-3.5,21.04,6.4,3.43,5.63,6.62,11.29,10.91,16.38,5.37,6.38,8.82,14.03,12.79,21.32,2.91,5.34,7.1,6.77,12.51,3.64,9.27-5.37,17.02-12.58,23.21-21.35,2.99-4.23,7.18-6.28,10.99-4.45,6.73,3.22,11.41,10.43,19.91,10.26.12,0,.25.2.37.32,3.8,3.67,8.65,6.07,12.01,10.37,1.58,2.02,4,3.72,6.7,4.12,6.4.94,13.01.95,18.27,5.71,1.11,1.01,2.86.32,4.26-.39,2.67-1.36,4.94-3.16,7.62-6.34Zm-433.23-94.54c.71-14.03,12.67-18.95,20.8-26.71,6.32-6.03,6.63-6.79,1.87-14.11-4.9-7.55-12.16-11.62-19.76-15.39-5.78-2.87-11.91-5.08-16.43-10.05-2.64-2.9-3.19-6.05-.8-9.02,5.63-6.97,11.16-14.1,19.5-18.24,6.98-3.47,13.8-7.25,20.79-10.7,3.78-1.87,6.95-4.33,7.77-8.53.97-5,2.96-9.51,5.25-13.96,1.57-3.05,2.19-6.78-.39-8.88-8.09-6.57-12.14-15.13-14.18-24.98-.06-.31-.28-.6-.44-.89-2.92-5.32-.1-10.44,6.18-10.62,3.62-.1,6.66-1.01,9.85-2.75,2.55-1.4,4.23-3.85,6.68-4.97,12.93-5.89,19.72-17.91,28.45-28,.51-.59.95-1.55.87-2.28-1.26-10.42,2.88-20.27,3.13-30.49.15-6.24,1.97-11.33,6.98-15.19,4.06-3.12,5.66-7.2,4.6-12.29-1.21-5.85.63-10.35,5.76-13.67,4.31-2.79,8.37-5.96,12.56-8.95,9.64-6.88,17.36-16.56,29.54-19.78,3.26-.86,5.51-3.66,6.7-6.98.79-2.22.68-5.18-1.34-5.76-4.21-1.19-8.3-3.58-13-2.64-1.44.29-2.33,1.05-3.08,2.26-1.75,2.8-3.34,5.77-5.49,8.24-3.52,4.05-7.76,7.9-13.25,8.12-8.43.34-16.63,2.28-24.93,2.82-8.45.55-12.78,5.8-16.74,11.7-2.89,4.3-5.82,8.45-9.4,12.2-2.15,2.25-5.23,4.22-5.57,7.47-.61,5.93-3.83,10.43-6.71,15.29-2.65,4.47-6.16,5.89-11.12,5.86-4.75-.02-9.59-.9-14.31.94-7.66,2.99-14,7.33-17.9,14.89-4.08,7.91-5.89,13.38.76,19.81,3.07,2.97,3.28,6.44-.36,9.47-1.4,1.16-2.68,2.46-4.12,3.57-10.55,8.11-20.41,17.01-30.13,26.08-2.84,2.65-5.28,5.91-4.77,10.01,1.31,10.49,1.7,21.23,6.92,30.83,2.21,4.08,2.05,8.41,1.44,12.67-.5,3.48-.88,6.94-.73,10.43.2,4.73-1.61,8.39-5.31,11.23-9.21,7.08-18.3,14.32-27.63,21.23-7.63,5.65-8.2,11.28-.49,16.68,8.32,5.83,17.18,10.82,28.04,9.86,2.29-.2,4.58.12,6.9.63,7.18,1.58,13.59,5.14,20.45,7.53,12.76,4.44,16.37,16.25,8.2,26.92-4.48,5.85-5.14,11.94-1.6,19.1Zm135.26,142.96c1.44-2.42.75-4.45.95-6.38,1.4-13.24-4.92-17.84-14.75-21.49-1.14-.42-2.41-.3-3.55-1.39-5.82-5.6-11.51-11.29-16.6-17.59-3.88-4.8-4.52-10.56-.43-14.9,2.44-2.58,3.97-5.37,4.43-8.69,1.53-10.94,3.4-21.98-7.42-29.96-4-2.95-7.39-6.48-9.51-11.24-2.76-6.2-5.87-12.17-11.35-16.72-1.81-1.5-3.96-3.99-3.53-6.9,1.31-8.94,4.67-17.29,11.51-23.15,5.21-4.47,11.7-7.55,17.85-10.81,5.56-2.94,6.89-6.44,3-11.6-8.63-11.45-20.98-17.39-34.03-22.17-6.32-2.32-13.42-2.92-18.36-8.31-1.76-1.92-3.19-3.74-1.54-6.59,5.28-9.13,12.23-16.55,21.66-21.41,8.29-4.27,12.18-10.46,10.1-17.2-.89-2.89-1.72-5.79-1.94-8.74-.59-8.07-5.17-13.44-11.31-17.92-3-2.19-5.34-4.91-7-8.31-2.18-4.49-4.32-9.05-7.05-13.2-3.9-5.95-4.29-9.39,1.09-13.99,10.21-8.74,19.21-18.81,29.96-26.93,2.48-1.87,4.27-4.24,4.52-7.45.11-1.4-.45-2.66-1.78-3.32-1.02-.51-2.01-.17-2.66.71-3.88,5.29-9.72,8.42-14.3,13-6.09,6.09-10.97,13.41-18.32,18.26-4.73,3.12-9.11,6.7-12.95,10.92-1.49,1.64-3.27,3.45-3.01,5.57,1.05,8.67-.5,17.74,3.71,25.95,1.4,2.73,1.57,5.68,1.87,8.69.56,5.67-3.68,10.11-3.71,15.38-.05,6.48-3.8,9.56-8.91,11.9-2.41,1.1-4.89,2.05-7.31,3.12-12.88,5.7-25.04,12.37-33.47,24.24-3.03,4.26-2.53,8.29,1.91,11.01,3.81,2.34,7.83,4.39,11.89,6.29,8.36,3.92,15.98,8.75,22,15.93,6.58,7.85,5.11,14.31-3.65,19.51-5.75,3.41-12.25,6.4-15.44,12.94-2.2,4.5-3.1,9.42-4.01,14.33-.49,2.61-.02,4.73,1.49,7.02,5.24,7.93,12.52,14.12,18.06,21.8,4.85,6.73,10.45,12.94,14.99,19.85,3.44,5.23,5.79,11.09,10.15,15.86,4.6,5.03,4.25,6.66-.39,11.74-.78.86-1.82,1.52-2.45,2.47-1.64,2.45-1.59,5.19,1.16,6.41,6.46,2.87,12.94,5.97,20.46,3.13,4.56-1.72,9.32-1.68,13.04,2.1,7.83,7.94,16.89,14.37,25.44,21.44,3.74,3.09,7.3,7.16,12.04,7.72,10.64,1.26,13.86,8.78,16.54,17.23.14.45.43.86.91,1.82Zm-47.46-523.14c7.09-.34,14.9-.67,22.7-1.09,2.18-.12,3.97-1.14,5.9-2.27,4.32-2.54,8.94-4.63,13.58-6.54,2.72-1.12,7.06,1.64,8.45-1.96,1.21-3.1-2.6-5.45-3.89-8.27-.14-.3-.31-.59-.49-.87-3.31-5.01-5.81-5.98-11.27-3.07-5.3,2.83-10.52,2.76-15.08-.42-5.42-3.79-11.51-4.94-17.6-6.49-7.61-1.94-14.14-.83-19.05,5.95-6.46,8.93-13.97,16.78-23.26,22.9-5.34,3.51-10.26,6.06-17,2.82-9.81-4.72-20.24-1.17-30.38-.8-2.97.11-5.49,2.27-7.52,4.59-5.25,6-10.5,12-15.73,18.03-1.31,1.51-2.82,3.11-2.59,5.24,1.16,10.56-2.75,20.74-2.17,31.25.25,4.46-1.4,8.39-3.84,12.11-3.67,5.58-8.15,10.54-13.1,14.83-10.54,9.12-17.34,11.81-28.8,3.5-3.09-2.24-6.43-2.84-9.33-1.16-7.37,4.29-13.8,9.51-15.92,18.61-1.79,7.7-1.68,15.48-4.87,23.34-4.1,10.1-4.5,21.86-.63,33.05,1.01,2.93,3.12,6.15,1.34,9.57-6.77,13.01-15.38,24.4-28.53,31.64-4.35,2.39-7.17,7.52-5.66,11.52,4.29,11.36,9.29,22.38,16.1,32.5,1.67,2.49,3.04,2.32,4.34-.17,1.53-2.96,2.92-5.99,4.44-8.95,2.04-3.98,3.35-8.61,6.75-11.55,3.69-3.19,4.05-6.27,2.43-10.53-1.99-5.24-1.11-9.96,3.4-13.94,5.02-4.43,10.91-7.54,16.24-11.49,2.48-1.84,5.23-2.54,8.2-3.22,6.4-1.46,13.22.42,19.41-3.5,3.79-2.41,7.42-4.99,11.02-7.63,4.68-3.44,6.38-7.8,4.18-13.19-4.64-11.33-.55-21.96,2.47-32.46,2.22-7.73,7.14-14.67,6.3-23.29-.12-1.22.66-2.54,1.03-3.81,2.45-8.41,8.68-14.11,14.89-19.52,6.18-5.38,12.39-10.72,21.36-11.98,4.16-.59,8.65-.42,12.66-2.1,4.08-1.71,8.06-1.57,12.15-.2,8.13,2.72,14.98-.25,18.14-8.4,2.32-6,4.19-12.21,5.8-18.45,2.07-8.01,3.16-16.28,8.2-23.28,2.61-3.63,5.35-7.38,6.89-11.5,2.84-7.59,7.66-10.82,15.63-9.36.64.12,1.33.02,2.71.02Zm-98.16-24.59c4.09-3.55,8.87-3.87,13.74-3.3,2.1.24,4.1,1.46,6.2,1.68,8.82.91,16.59,3.8,23.14,10.13,3.1,2.99,7.53,4.14,11.55,1.6,7.42-4.7,14.5-9.79,20.32-16.59,4.02-4.7,5.71-10.79,10.19-15.19,2.59-2.54,4.9-3.24,7.92-1.47,1.87,1.09,3.62,2.37,5.43,3.56,6.96,4.57,14.73,4.55,22.59,3.98,1.96-.14,3.06-1.5,3.28-3.26.92-7.37,4.38-13.89,6.74-20.78,2.05-6,7.6-10.09,12.94-7.26,7.18,3.81,13.59,1.44,20.49.73,5.91-.61,10.72-2.41,14.95-6.76,3.22-3.3,5.74-7.62,10.02-9.6,11.13-5.15,22.53-7.54,34.34-1.88,2.92,1.4,5.72,4.06,9.28,2.61,6.3-2.57,12.25-1.22,18.13,1.14,1.58.63,3.17,1.67,4.73,1.07,6.3-2.41,12.59-4.9,18.72-7.71,2.62-1.2,5.61-2.31,7.1-5.13,2.29-4.33,6.14-7.4,8.93-11.35,1.75-2.49,4.42-3.93,7.78-3.64,8.84.78,15.47,5.65,20.67,12.2,3.78,4.77,6.33,10.53,10.43,15.13,3.02,3.38,6.4,3.59,10.1.6,2.85-2.3,5.05-5.59,8.01-7.32,6.75-3.93,10.55-10.49,15.51-15.9,5.23-5.69,8.45-7.14,15.6-3.67,2.67,1.29,5.27,2.65,8.31,3.2,7.03,1.27,13.16,4.17,18.1,9.77,2.88,3.26,6.45,6.2,11.15,7.1,5.12.98,9.53,3.08,13.2,7.17,2.63,2.93,7.5,1.71,9.96-1.73,2.01-2.81,3.83-5.76,5.98-8.45,6.08-7.6,14.39-8.88,23.41-8.01,1.08.1,2.42.71,3.13-.7.6-1.19-.12-2.16-.63-3.24-2.78-5.86-8.39-5.11-13.43-6.61-8.1-2.41-12.32.94-16.27,7.09-3.52,5.48-6.86,5.73-10.94.69-3.39-4.19-7.24-8.99-11.73-10.29-7.38-2.14-12.9-6.34-18.8-10.58-7.13-5.13-15.95-7.23-23.22-12.26-4.44-3.08-9.24-2.96-13.42.45-5.97,4.87-12.74,8.35-19.33,12.18-8.78,5.1-14.59,4-19.3-4.95-5.62-10.68-13.6-18.9-23.45-25.61-3.18-2.17-5.91-2.55-9.09-.21-2.17,1.6-4.02,3.46-5.78,5.47-3.38,3.86-6.8,7.64-11.78,9.64-5,2.01-9,5.64-13.07,9.04-5.86,4.9-8.06,5.39-14.74,1.66-3.67-2.05-7.23-2.07-11-.6-4.61,1.8-8.74,1.51-12.15-2.62-1.15-1.4-2.77-2.41-4.02-3.74-3.22-3.44-7.19-4.1-11.4-2.78-10.59,3.32-18.63,9.17-22.13,20.58-2.04,6.68-5.86,13.08-13.26,15.18-5.69,1.61-11.56,2.72-17.7,2.42-9.25-.45-18.77-1.28-26.68,5.41-.46.39-1.27.33-1.9.55-10.72,3.72-21.79,1.83-32.69,1.67-5.29-.08-9.5,1.13-12.98,4.84-4.37,4.65-9.54,8.28-14.74,11.86-6.39,4.4-9.6,10.4-9.67,18.11-.05,5.83-.21,11.67-.01,17.5.14,4.16-.45,7.91-4.85,9.35-4.11,1.34-8.46,3.27-12.41-.76-3.36-3.43-7.73-3.37-11.66-1.97-3.12,1.11-6.18,1.76-9.25,1.3-8.39-1.27-13.52,3.91-18.66,9.26Zm18.52,100.82c-1.17,0-2.34-.07-3.5.02-1.15.09-2.45.05-3.4.58-12.97,7.27-24,16.46-29.96,30.62-1.56,3.7.15,7.82-1.22,11.32-3.56,9.09-7.65,17.87-8.68,27.86-.52,5.01-1.41,9.78.13,14.69,1.33,4.22,2.31,9.18-.09,12.61-7.26,10.38-16.87,18.34-30.24,18.09-12.21-.23-20.84,5.98-28.86,13.52-5.81,5.46-3.89,13.48,3.3,17.12,4.75,2.4,9.32,4.92,12.95,9.1,9.77,11.27,13.51,25.4,18.92,38.74,1.62,3.98.87,8.03-.74,11.68-1.7,3.85-2.12,8.02-3.68,11.86-.5,1.23-1.11,2.78.06,3.74,1.52,1.24,2.77-.21,3.88-1.12,7.58-6.23,15.65-11.72,23.95-16.94,4.76-2.99,7.64-7.22,7.28-13.3-.23-3.81-.36-7.75.36-11.45.96-4.93.23-9.52-2.37-13.41-3.27-4.89-3.48-10.28-3.97-15.67-.26-2.83-.31-5.69-1.23-8.36-1.96-5.66.14-10.43,3.96-14.04,5.39-5.1,9.97-10.99,16.09-15.42,5.08-3.67,9.51-8.26,14.1-12.57,3.11-2.91,4.43-7.06,2.24-10.47-7.02-10.92.06-20.5,2.17-30.55.32-1.52,1.79-2.36,3.23-2.93,8.98-3.58,17.43-8.41,27.82-7.73,10.26.67,14.48-3.12,17.15-13.22.56-2.1,1.12-4.06,2.47-5.88,6.63-8.92,14.22-17.07,20.68-26.14,1.99-2.79,4.81-6.26,8.54-6.34,7.03-.15,13.87-1.63,20.79-2.09,10.15-.67,18.15-3.92,22.31-13.87.83-1.99,1.77-3.99,2.97-5.77,2.06-3.06,4.73-5.24,8.77-4.03,1.64.49,3.56,2.6,4.81.46,1.07-1.84.11-4.37-1.44-5.97-2.19-2.27-4.53-4.36-6.38-6.98-3.76-5.3-3.96-7.14.04-12.43,3.24-4.29,5-8.94,4.9-14.35-.03-1.64.34-3.31.69-4.92,1.76-7.93,1.1-8.63-7.02-8.04-2.16.16-3.78,1.21-5.44,2.26-6.16,3.88-12.54,6.26-20.13,5.89-7.44-.36-14.94.54-22.41.94-2.39.13-4.7.8-6.25,2.72-6.16,7.58-11.43,16.11-14.49,25.06-3.01,8.79-4.76,18.26-6.98,27.44-1.68,6.94-7.18,14.77-16.5,16-3.43.45-6.67.04-9.88-.39-6.79-.91-13.04,2.33-19.69,2.08Zm658.53-114.26c-5.55,1.22-9.89-.49-14.25-1.81-10.12-3.04-20.66-5.26-28.5-13.24-1.93-1.96-4.4-3.26-6.88-3.95-11.01-3.05-20.03-10.29-30.59-14.24-3.11-1.16-5.85-2.89-5.99-6.58-.14-3.73,3.13-4.74,5.71-6.17,7.74-4.28,13.92-9.25,13.23-19.59-.43-6.35-2.71-10.32-8.94-12.46-5.35-1.83-11.45-1.33-16.23-4.33-5.81-3.65-11.97-3.15-18.19-3.17-2.04,0-3.9-.26-5.77-1.16-9.6-4.62-18.32-10.61-26.77-17.02-4.33-3.29-9.21-5.4-14.41-3.61-8.37,2.88-16.82.96-25.21,1.49-1.58.1-2.74-.97-4.05-1.73-7.44-4.32-11.29-11.6-15.29-18.65-5.24-9.24-17.09-10.94-24.45-3.2-3.66,3.85-7.14,7.88-10.83,11.7-3.09,3.21-6.56,4.69-11.21,2.85-3.51-1.4-7.37-2.71-11.06-2.69-6.68.02-11.8-2.72-16.56-6.89-2.14-1.87-4.45-3.46-7.56-3.31-6.17.3-11.81-1.21-16.88-4.89-1.86-1.35-4.21-1.71-6.1-.26-2.74,2.1-5.67,4.23-7.69,6.96-7.01,9.48-15.33,17.82-22.85,26.84-2.73,3.27-5.97,4.15-9.29.66-2.97-3.13-5.42-6.62-7.17-10.6-3.73-8.49-9.69-15.12-17.55-19.85-6.38-3.84-10.71-2.76-14.95,2.93-.69.92-1.82,2-.95,3.04,1.08,1.29,2.21.03,2.86-.81,2.35-3.02,4.71-2.29,7.34-.42,6.47,4.62,12.82,9.29,17.79,15.69,3.35,4.32,6.57,8.68,9.44,13.35,3.41,5.55,8.95,7.36,14.08,4.51,7.26-4.03,14.65-7.85,21.37-12.8,6.36-4.68,11.78-4.43,18.09.6,3.15,2.51,6.69,4.51,10.69,5.15,3.44.55,6.41,1.93,8.75,4.32,5.63,5.77,12.63,8.95,20.12,11.41,2.64.87,5.54,1.95,7.48,3.81,5.58,5.34,10.66,3.73,15.91-.23.53-.4,1.06-.81,1.63-1.15,13.54-8.15,30.18-.46,32.5,14.99,1.2,8,1.1,16.21,4.81,23.78,3.38,6.9,7.3,12.28,16.2,10.76,2.43-.41,5-.22,7.49-.02,4.08.32,7.49-1.21,10.63-3.51,5.36-3.92,10.29-4.6,14.83.04,7.13,7.29,16.19,10.79,24.96,15.06,5.34,2.6,10.79,3.17,16.44,1.34,2.96-.96,5.64-.94,8.7.22,3.33,1.27,6.58,3,10.46,2.9,7.76-.2,15.7-1.02,22.78,3.51.63.41,1.63.39,2.44.35,11.48-.56,18.54,6.32,24.01,15.01,4.03,6.4,10.06,9.08,16.71,10.68,3.12.75,7.14.11,9.05-2.9,2.65-4.19,6.38-7.5,9.69-12.74Zm-202.16-135.01c-.06,2.7,1.02,3.75,1.81,5,2.95,4.65,6.09,9.11,9.46,13.49,2.74,3.56,5.15,6.3,9.6,6.47,4.99.19,9.99.08,14.99,0,2.46-.03,5.04.52,7.28-1.05,3.65-2.55,7.98-1.86,10.81.17,8.79,6.31,18.16,11.61,27.3,17.3,5.24,3.26,10.51,5.73,16.87,4.01,1.48-.4,3.02-.5,4.4.21,7.73,3.98,16.26,5.27,24.61,6.84,10.57,1.99,18.4,13.29,13.22,25.13-2.36,5.39-6.08,9.45-9.75,13.63-3.01,3.44-3.53,5.72.25,9.06,3.56,3.15,7.28,5.85,11.67,7.42,8.34,2.97,15.4,7.91,22.76,12.71,10.74,7.01,23.12,10.71,36.16,10.5,5.39-.09,9.95,1.38,13.76,4.73,5.97,5.23,12.33,10.04,17.68,15.99,5.04,5.61,13.04,7.24,16.76,3.26,2.54-2.72,5.46-4.76,8.43-6.9,3.78-2.72,8.25-4.35,11.64-7.64,3.57-3.47,3.6-6.16.07-9.72-4.88-4.92-10.42-9.25-17.15-10.63-10.43-2.15-17.82-8.46-24.82-15.66-5.31-5.46-5.43-9.13-1.05-15.42,4.13-5.93,7.21-12.39,7.73-19.73.38-5.39-.04-10.75-4.73-14.45-5.72-4.52-11.41-9.14-17.52-13.09-4.1-2.65-8.82-3.42-13.79-1.09-2.59,1.21-6.03,2.69-8.28,2.4-6.12-.76-12.48-2.27-17.92-5.08-5.65-2.92-10.56-7.47-15.36-11.78-2.45-2.2-5.11-4.49-8.03-4.57-5.52-.14-8.64-3.75-12.53-6.54-4.73-3.4-8.81-7.39-15.31-8.53-9.48-1.66-16.19-9.85-13.48-19.65.26-.93.12-1.99.11-2.99-.07-5.9-3.46-8.5-8.71-6.06-3.22,1.49-6.27,3.81-6.04,8.28.08,1.64.52,3.56-.97,4.96-1.17-.65-1.14-1.51-1.22-2.31-.83-8.26-2.09-8.37-10-5.38-7.47,2.82-14.92,6.45-23.48,5.6-5.51-.55-11.24,1.39-14.6,5.3-6.21,7.24-14.22,11.69-21.81,16.87-3.03,2.07-5.58,2.14-8.95-.31-4.14-3.01-6.45-7.98-11.85-10.76Zm-364.35,534.17c-10.99,3.74-16.43,11.73-19.07,22.24-1.17,4.64-.42,8.33,2.95,11.85,4.02,4.2,7.48,8.87,9.69,14.37,1.76,4.38,4.49,7.97,8.17,11.13,4.23,3.63,9.34,7.2,10.06,13.23,1.22,10.16,1.57,20.26-6.62,28.49-4.15,4.17-3.53,9.04.36,13.37,6.69,7.47,14.2,13.69,22.97,18.76,6.51,3.77,12.83,8.76,12.09,17.98-1.16,14.54,7.58,29.72,20.7,36.19,3.36,1.66,6.62,1.65,10.05.11,4.72-2.12,9.58-4.06,14.87-2.32,3.61,1.19,7.21,2.48,10.65,4.08,5.5,2.57,11.38,4.56,13.84,11.21,3.5,9.44,9.26,17.08,18.58,21.75,2.75,1.38,4.84,3.74,6.69,6.48,4.11,6.1,9.5,10.51,17.62,9.94,3.31-.23,6.67-.2,9.99,0,4.86.29,8.65-.7,11.12-5.61,1.19-2.36,3.85-4.11,6.12-5.77,2.73-2,6.17-1.95,8.33.33,6.12,6.49,12.59,12.67,17.93,19.9,4.86,6.57,7.46,14.36,12.01,21.09,3.19,4.72,6.61,5.21,12.18,3.06,9.42-3.65,17.39-9.78,24.94-16.59-6.13,3.26-12.55,5.5-19.28,7.04-7.35,1.68-15.55,1.3-17.68-7.67-.37-1.58-1.31-3.07-2.2-4.47-8.83-13.88-13.23-29.52-17.97-45.01-1.24-4.06-2.89-7.93-6.02-10.77-4.05-3.66-8.83-8.19-14.29-6.48-7.6,2.38-12.67-.94-18.36-4.46-3.98-2.46-5.45-7.29-10.17-9.16-8.46-3.36-13.86-9.85-16.56-18.6-1.24-4.01-2.97-7.77-6.9-10-6.4-3.63-12.34-8.07-16.91-13.72-6.11-7.56-14.65-11.26-22.57-16-4.04-2.42-8.09-3.31-13.21-1.47-9.25,3.34-19.96-4.05-17.65-12.14,1.96-6.85,1.12-12.48-1.65-18.55-2.99-6.55-6.7-12.29-11.97-17.43-11.35-11.06-25.07-19.15-36.51-30.04-11.28-10.73-13.36-22.34-6.31-36.36Zm-41.05-377.62c-3.82,2.62-6.85,4.48-9.64,6.66-7.09,5.55-12.7,5.52-18.97-.77-3.31-3.32-7.14-5.81-11.54-6.51-4.49-.71-8.45-2.62-12.67-3.9-3.61-1.1-7.57-1.74-10.72.08-7,4.05-13.96,8.35-20.23,13.43-6.41,5.19-9.68,13.01-13.57,20.11-6.35,11.62-19.59,16.56-29.56,4.7-2.14-2.55-4.26-5.04-6.11-7.83-3.78-5.72-9.33-7.07-12.84-2.8-4.51,5.5-8.47,11.49-12.15,17.59-2.31,3.82-3.79,8.11-1.11,12.71.68,1.16.36,2.93.39,4.42.11,5.65-.16,11.28.78,16.94.69,4.14-.3,8.16-2.95,11.78-4.4,6.02-10.05,11.31-12.58,18.47-1.63,4.6-4.78,7.78-7.77,11.28-3.18,3.72-5.8,7.94-5.39,13.05.53,6.59-3.01,11.04-7.31,15.07-2.49,2.34-4.62,4.83-5.46,8.13-1.19,4.66-2.23,9.36-3.12,14.08-.5,2.67-.19,5.28,1.81,7.49.99,1.1,1.57,2.56,2.51,3.72,8.83,10.92,4.19,14.86-5.63,19.1-10.96,4.72-20.3,11.86-30.93,16.85-3.58,1.68-6.9,4.04-10.1,6.41-4.25,3.15-6.24,8.29-3.4,11.65,5.8,6.87,5.71,16.68,14.06,22.8,6.1,4.47,11.91,12.19,9.65,21.99-.53,2.31.74,4.03,3.53,2.96,4.68-1.78,8.37-.03,11.9,2.91,4.75,3.97,10.81,3.94,15.43-.12,1.63-1.43,3.2-2.85,5.13-3.91,5.63-3.07,7.81-10.99,3.8-15.85-5.71-6.91-9.81-14.47-11.98-23.14-.24-.95-.68-1.87-1.18-2.73-4.6-7.88-3.32-13.51,4.78-17.66,6.3-3.22,12-6.98,16.68-12.33,3.41-3.9,5.82-8.48,8.93-12.56,3.34-4.38,3.68-9.23,1.67-13.66-5.39-11.87-1.46-23.54.49-35.04,1.28-7.55,5.52-14.51,4.61-22.67-.38-3.43,1.93-6.27,3.75-9.05,2.47-3.76,5.57-6.83,9.21-9.58,6.3-4.77,10.89-5.25,17.74-1.12,5.04,3.04,10.07,4.21,16.08,1.82,5.53-2.21,9.35-6.15,13.58-9.87,7.82-6.89,11.99-15.25,11.55-25.83-.21-4.99.26-10.02-.17-14.99-.53-6.13,1.29-11.55,4.35-16.55,1.79-2.92,4.29-5.47,6.77-7.87,3.82-3.7,6.12-8.65,10.41-11.99,11.46-8.91,24.72-6.21,36.99-4.36,10.74,1.62,23.63-2.05,30.5-13.52Zm182.26-182.12c2.44.66,3.71,1.48,4.6,1.18,7.63-2.61,15.65-4.47,22.16-9.58,5.03-3.94,8.32-9.48,12.33-14.34,2.65-3.21,5.87-3.92,9.33-2.42,8.04,3.48,14.82,8.81,19.49,16.23,3.94,6.25,6.98,13.05,10.68,19.46,2.75,4.76,5.5,5.02,9.71,1.59,2.63-2.15,3.85-5.64,6.38-7.56,6.51-4.95,12.36-10.42,17.73-16.62,3.84-4.43,7.36-4.11,12.87-1.3,3.54,1.8,6.29,5.15,10.35,5.82,7.57,1.24,13.88,5.23,17.19,11.59,5.84,11.22,16.21,17.36,25.2,25.07,3.21,2.75,7.28,3.42,10.28-.2,6.31-7.6,13.78-12.4,23.87-13.62,6.29-.76,11.66-1.38,16.16,4.35,2.85,3.63,7.45,6.25,11.89,4.35,8.65-3.7,17.54-7.13,25.12-12.97,5.38-4.14,10.99-7.32,18.22-6.5,5.66.65,9.42-2.27,12.87-6.72,2.6-3.34.91-4.66-1.21-6.37-2.83-2.27-6.35-3.42-9.01-6.13-7.53-7.65-13.54-8.69-23.44-4.33-7.88,3.47-16.05,1.35-24.1,1.54-.95.02-2.01-1.06-2.89-1.78-2.68-2.22-5.06-4.92-8.01-6.7-4.02-2.42-5.53-8.33-10.47-8.72-8.28-.66-16.79-2.02-24.23,4.1-5.52,4.54-11.85,5.69-18.54,1.78-2.09-1.22-4.31-2.29-6.98-2.41-5.84-.27-10.87-2.37-14.86-7-3.84-4.44-8.42-8.23-14.3-9.53-5.12-1.13-8.94-4.14-12.74-7.3-4.2-3.48-7.5-3.68-11.26.34-6.71,7.19-14.16,13.44-22.07,19.23-7.64,5.6-12.06,5.17-17.19-2.74-2.33-3.59-4.52-7.36-6.76-10.99-4.66-7.55-9.81-14.99-17.72-19.76-4.62-2.79-8.13-2.01-11.43,2.23-1.94,2.5-3.51,5.18-5.07,7.94-3.12,5.53-7.95,9.32-14.27,10.69-13.37,2.89-15.55,9.19-6.62,19.49,5.25,6.06,5.09,13.08-.21,19.43-3.26,3.9-7.48,6.39-13.06,9.2Zm179.88,36.46c-4.53-3.19-7.92-7.89-13.22-9.57-6.52-2.06-10.1-6.57-12.7-12.6-2.69-6.27-6.28-12.44-12.9-15.02-5.45-2.12-10.69-4.11-15.25-7.97-2.6-2.2-6.08-4.01-9.45-.77-8.12,7.81-16.52,15.36-24.18,23.6-6.01,6.46-13.68,6.1-16.8-2.17-1.85-4.89-4.58-9.21-6.93-13.74-3.88-7.45-9.77-13.34-16.92-17.83-4.9-3.08-9.51-1.98-13.06,2.5-3.67,4.63-5.79,10.39-11.3,13.71-4.76,2.88-10.23,3.91-14.95,6.62-4.78,2.74-9.26,3-14.12.21-4.29-2.46-9.04-3.49-13.94-2.13-5.11,1.43-10.1,1.76-14.82-.99-2.96-1.73-6.26-2.1-9.19-1.28-9.83,2.74-19.9,5.12-27.37,13.01-3.12,3.3-6.99,5.52-11.4,6.87-8.61,2.63-17.41,4.84-26.36,3.76-6.96-.84-12.18,1.68-17.38,5.43-2.85,2.06-5.84,3.98-9.59,3.68-9.29-.76-18.53,2.48-27.86.35-.88-.2-1.98.21-2.89.56-7.06,2.67-12.35,16.54-8.92,23.83.97-1.92,1.84-3.7,2.74-5.46,3.57-7.02,6.61-7.79,13.2-3.39.68.46,1.58.62,2.2,1.14,4.59,3.78,10.84,2.84,15.75,5.53,6.62,3.63,12.17,4.87,18.24-1.94,5.24-5.89,7.77-5.78,13.11-1.53,8.24,6.55,17.7,5.65,27.12,5.62.76,0,1.71-.32,2.23-.83,4.12-4.07,8.41-7.92,11.53-12.96,1.58-2.55,3.98-5.68,7.13-5.76,11.02-.3,22.86-3.38,31,8.1,3.17,4.47,7.87,6.39,13.55,5.59,4.21-.6,8.06,1.25,11.18,3.51,4.84,3.5,9.59,2.91,14.6,1.36,9.79-3.02,16.45-9.68,21.29-18.46,2.01-3.64,4.23-7.15,7.23-10.11,2.78-2.75,6.04-3.55,9.61-2.17,4.66,1.8,8.96,4.21,12.59,7.81,5.62,5.58,9.7,12.16,13.41,19.07,3.91,7.29,9.45,7.86,13.49.77,2.49-4.38,6.34-7.1,9.42-10.7,2.05-2.4,4.49-4.52,6.2-7.13,3.25-4.95,7.45-8.86,12.06-12.45,1.97-1.53,3.74-1.35,6.02-.73,4.62,1.26,8.85,4.04,13.75,4.1,6.72.08,12.14,3.13,17.25,6.98,1.49,1.12,3.04,2.74,4.78,2.4,7.1-1.37,13.74,1.62,20.8,1.59ZM95.97,601.93c-1-2.02-1.27-2.81-1.74-3.46-9.24-13.04-7.16-13.23.2-24.49,6.38-9.75,14.96-17.36,24.29-24.12,4.75-3.45,7.9-9.25,14.54-10.04,1.09-.13,1.42-1.34,1.28-2.41-1.05-7.8.47-16.16-8.03-21.69-7.57-4.93-8.73-14.6-13.39-21.76-4.67-7.19-4.83-11.34,3.2-17.58,12.11-9.42,25.23-17.58,39.46-23.73,11.99-5.18,12.42-9.98,1.98-17.99-5.71-4.38-6.4-6.89-3.82-13.57.36-.92.88-1.94.78-2.86-.7-6.46,3.2-10.24,7.32-14.4,4.55-4.58,11.06-8.63,10.61-16.1-.46-7.76,3.03-12.95,8.36-17.63,1.76-1.55,2.98-3.52,4.3-5.46,3.86-5.71,5.62-12.72,11.53-17.23,2.19-1.67,4.18-4.93,4.4-7.62.79-9.57,1.84-19.25-.54-28.77-1.04-4.16-1.06-7.99.52-12.15,1.37-3.6,3.03-7.07,5.25-10.01,4.8-6.35,7.58-15.32,18.78-14.66-4.72-3.69-12.74-2.78-16.82,2.17-7.69,9.32-13.02,19.81-14.41,32.19-1.07,9.51-2.89,18.96-4.82,28.34-2.15,10.45-11.26,13.58-19.47,17.56-4.21,2.04-8.89,3.21-13.05,1.63-9.66-3.67-18.68-1.39-26.85,3-10.24,5.51-17.94,13.61-17.77,26.59.07,5.75.43,11.38-3.2,16.73-3.98,5.86-1.67,12.86-1.86,19.42-.19,6.32,1.48,11.73,5.27,16.72,3.07,4.04,3.01,9.29-.25,13.18-7.94,9.48-15.79,19.05-25.73,26.61-5.32,4.04-6.21,8.22-2.62,13.79,2.12,3.29,3.2,6.91,4.36,10.5,1.19,3.67,2.52,7.26,5.01,10.21,5.05,6,9.39,12.15,7.32,20.65-.14.59.12,1.33.34,1.94,3.69,9.92,2.06,14.42-8.37,21.05-8.9,5.65-16.71,12.35-23.34,20.48-3.85,4.72-3.86,7.02.48,11.11,7.19,6.77,16.6,9.4,26.5,13.87ZM275.98,103.92c.41.46.81.92,1.22,1.39,2.72-1.84,5.35-3.82,8.17-5.48,4.68-2.75,8.82-7.27,14.37-7.5,12.64-.52,25.02.71,35.28,9.63,3.55,3.08,8.36,5.51,12.49,2.54,7.59-5.44,15.34-10.75,22.1-17.34,5.01-4.88,9.85-11.34,18.22-8.75,5.13,1.59,10.4,2,15.56,2.85,6.84,1.14,13.97,5.01,20.85-.3,5.32-4.11,11.21-3.85,16.97-1.35,7.97,3.46,16.46.3,24.51,2.32.72.18,1.83-.66,2.58-1.26,4.01-3.24,7.87-6.62,10.53-11.18,1.34-2.3,3.08-4.25,5.38-5.79,10.22-6.86,21.83-6.06,31.69,2.33,6.46,5.5,8.87,5.66,15.7.52,2.8-2.11,5.93-3.01,9.27-3.27,2.09-.16,3.87-.89,5.59-1.93,3.03-1.84,3.32-5.11.52-7.24-1.56-1.19-3.28-2.18-5.33-2.62-8.89-1.88-13-8.41-10.8-16.98.33-1.29.59-2.6.97-3.88.92-3.06-.17-4.49-3.36-4.16-4.28.45-7.35-1.42-10.74-4-3.72-2.83-7.14-7.13-11.8-7.75-10.6-1.41-21.12-1.23-27.71,9.62-1.12,1.83-2.73,3.36-3.93,5.15-2.33,3.49-5.45,5.11-9.68,4.96-4.49-.16-9-.12-13.5.04-3.62.12-7-.48-9.96-2.58-5.8-4.11-11.25-3.68-16.85.61-2.73,2.1-6.33,4.73-9.49,3.55-8.24-3.06-17.05-4.19-25.09-7.75-6.02-2.67-10.68-1.43-14.49,4.09-7.33,10.62-9.1,23.91-16.6,34.45-.35.49-.3,1.28-.42,1.94-1.07,5.87-9.7,15.42-15.37,15.36-8.41-.09-16.49,2.36-24.8,2.27-12.43-.14-23.34,4.6-33.85,10.45-3.08,1.71-5.47,4.66-8.18,7.04ZM15.17,504.56c.89-4.75.9-7.65-.54-10.73-2.82-6.04-.1-12.55,5.7-16.07,5.65-3.42,11.52-6.42,16.62-10.92,3.62-3.19,7.18-7.35,12.2-8.36,7.89-1.59,15.66-3.88,23.78-4.4,4.54-.29,7.58-3.74,9.46-7.35,1.85-3.54-1.19-6.2-3.7-8.46-5.41-4.87-10.42-9.87-9-18.15.16-.91-.38-1.94-.61-2.91-2.26-9.78-1.66-11.36,6.56-17.11,4.24-2.96,7.07-6.74,6.01-12.17-.85-4.38-.28-8.31.91-12.65.94-3.45,4.09-3.93,5.35-6.7,3.89-8.51,9.5-15.82,16.46-22.21,3.26-3,6.18-6.99,5.02-11.84-1.81-7.57-1.98-15.45-4.94-22.83-2.18-5.45-2.55-11.29.62-16.71,2.53-4.33,4.09-9.07,5.75-13.73,3.48-9.76,11.37-13.29,20.57-15.01,8.14-1.51,16.33-2.58,24.66-2.09,1.22.07,3.1.2,3.22-1.5.12-1.55-1.69-1.64-2.85-2.26-7.65-4.04-15.95-3.81-24.24-4.3-6.27-.37-11.84-.04-16.11,5.31-2.38,2.98-4.87,5.96-7.75,8.43-9.97,8.58-14.53,20.69-17.38,32.38-2.22,9.12-3.23,19.33-2.68,29.11.47,8.26-6.55,15.24-14.98,15.43-13.24.29-25.33,4.88-33.93,15.84-3.47,4.42-6.52,9.18-9.67,13.85-1.25,1.85-1.77,3.88-.84,6.15,2.83,6.93,2.36,13.53-1.71,19.96-1.27,2.01-3.46,4.33-2.56,6.78,3.29,8.94,1.5,19.74,9.88,26.87,1.72,1.46,2.74,3.74,4.17,5.57,1.9,2.43,1.94,4.84.13,7.31-2.75,3.75-5.62,7.36-8.89,10.71-6.77,6.93-14.65,12.51-22.02,18.7-3.42,2.87-5.04,6.78-2.54,10.62,3.05,4.69,6.26,9.3,9.87,15.43Zm123.02-322.4c2.93.82,6.08-.48,9.47,1.19,11.42,5.62,22.95,4.34,33.7-1.86,9.16-5.28,12.56-14.96,16.5-24.09,2.09-4.85,1.55-10.11,2.69-15.07,1.37-5.98,3.14-11.86,3.4-18.07.27-6.41,7.87-14.78,14.05-15.67.59-.08,1.24.23,1.85.41,5.42,1.62,8.72,5.47,10.04,10.72,2.86,11.36,3.83,23.15,8.01,34.24,1.29,3.42,1.32,7.42,5.91,8.14,8.63,1.36,13.67-.56,16.41-5.99,2.63-5.22,4.16-10.89,5.36-16.49.81-3.8,3.27-7.66,1.88-11.66-3.64-10.49,1.6-18.77,6.62-26.91,6.23-10.1,17.43-12.67,27.53-16.61,1.99-.78,3.78-2.12,6.69-1.97,9.97.51,19.42-3.44,29.18-5.06,1.27-.21,2.43-1.55.85-2.38-5.33-2.81-8.45-8.54-14.3-10.59-6.22-2.18-12.52-4.09-17.47-8.96-1.86-1.83-4.28-1.22-6.03,1.08-2.02,2.65-4.31,5.08-6.28,7.76-5.14,7.02-12.98,11.1-18.64,17.74-4.85,5.68-9.55,11.85-16.11,16.02-2.18,1.38-4.31,2.08-6.87,2.46-9.07,1.33-15.21-3.37-20.77-9.44-9.94-10.86-17.64-8.05-27.55-1.33-9.13,6.19-10.96,16.47-15.4,25.08-4.74,9.19-4.6,20.29-8.66,30.01-2.04,4.89-2.34,10.34-3.84,15.38-2.29,7.72-9.6,10-16.1,11.92-9.44,2.8-19.28,4.28-28.94,6.32-1.19.25-3.09-.31-2.97,1.7.1,1.59,1.73,1.89,3.08,1.95,2.16.1,4.33.03,6.72.03Zm176.79,22.32c-1.9,0-3.24.1-4.56-.02-10.3-.87-11.49,3.66-9.74,13.26.76,4.18,3.95,7.67,8.43,7.04,4.71-.66,8.8.19,13.08,1.64,4.18,1.42,6.82-.81,8.16-4.48,3.48-9.57-1.82-17.06-11.95-17.18-1.33-.01-2.65-.2-3.42-.27Zm647.64,58.1c7.32-.3,9.24-5.51,11.6-10.09.72-1.39,2.64-3.4-.03-4.55-1.87-.8-3.68.58-4.32,2.41-1.53,4.34-3.85,8.21-7.26,12.23Zm-340.23,363.93c2.67-5.83-1.78-14.71-9.05-17.99,3.13,6.23,6.02,11.97,9.05,17.99ZM102.01,194.78c-6.27,4.23-7.22,7.17-3.99,13.15-.76-5.38,2.24-8.39,3.99-13.15Zm509.81,411.17c-1.72-2.1-3.26-4.44-6.43-4.71,1.62,2.24,2.96,4.81,6.43,4.71Z"/>
      <path d="m38.92,192.39c-1.12,2.93-4.21,3.62-6.36,5.3-8.74,6.83-8.3,18.23,1.18,24.5,5.52,3.65,10.64,7.87,16.53,10.99,3.31,1.75,4.15,6.71,1.07,8.88-11.02,7.78-18.71,19.45-30.75,25.98-3.53,1.91-6.44,4.48-9.03,7.67-2.18,2.68-3.52,5.45-4.54,8.68C5.52,289.09,3.84,293.84,0,297.34v-7c2.38-1.28,2.81-3.92,3.12-5.99,1.31-8.73,7.46-13.55,14.17-17.5,11.56-6.79,19.37-17.55,29.1-26.25,1.22-1.09,1.91-2.67.36-3.87-2.59-1.99-3.51-6.05-7.22-6.39-1.61-.15-.94,1.79-.69,2.81,1.29,5.22-.69,9.27-4.86,12.08-7.83,5.25-15.96,10.07-23.13,16.27-.67.57-1.86.54-2.81.78,2.51-4.38,6.41-7.42,10.44-10.19,4.76-3.27,10.19-5.56,14.31-9.77,3.89-3.97,4.64-8.64,1.11-12.91-4.27-5.17-7.17-11.12-10.68-16.71-4.06-6.46-3.13-10.75,3.51-14.13,4.06-2.07,7.02-6.34,12.19-6.18Z"/>
      <path d="m0,718.34c4.47-1.43,8.46-3.84,12.46-6.22,3.45-2.05,6.96-3.73,11.1-3.95,4.35-.24,5.22-2.08,2.6-5.69-1.75-2.41-3.83-4.61-5.97-6.7-2.83-2.78-4.3-6.3-5.78-9.82-.28-.66-.21-1.76.18-2.33.63-.91,1.38-.04,2.11.28,1.85.81,3.11,2.55,4.68,4.94,3.47,5.29,7.91,9.79,12.78,13.8,1.69,1.39,3.77,1.85,6.06.59,2.85-1.56,5.51-.99,7.46,1.73,1.03,1.43,3.09,2.94,1.84,4.74-1.25,1.79-3-.15-4.44-.65-1.94-.67-3.61-.31-5.19.8-4.67,3.27-10.04,5.85-15.44,6.03-8.18.29-14.33,4.5-21.06,7.89-.98.49-2.25.39-3.39.56,0-2,0-4,0-6Z"/>
      <path d="m16.83,634.15c2.12-2.1,4.25-4.2,6.36-6.32,2.47-2.48,3.82-5.47,1.52-8.48-5.17-6.75-11.71-11.82-20.84-15.39,4.46,7.01,8.01,13.2,3.99,21.14-1.95-2.88-4.18-5.22-7.85-4.77v-20c9.08,2.14,16.49,7.22,23,13.63,1.63,1.61,4.15,2.32,4.62,5.43.99,6.58-2.56,12.13-10.45,15.1,0,0-.34-.35-.34-.35Z"/>
      <path d="m0,536.34c5.47,5.69,5.47,10.14,0,14v-14Z"/>
      <path d="m0,440.34C3.9,444.19,3.9,447.31,0,451.34v-11Z"/>
      <path d="m7.92,262.4C6.51,266.02,3.6,267.63,0,268.34v-2c2.74-1.11,4.62-3.96,7.92-3.94Z"/>
      <path d="m44.93,634.39c-.88,1.19-1.52,2.76-2.68,3.52-7.68,5.07-8.2,13.23-8.98,21.08-.46,4.64,2.99,8.51,6.69,9.55,3.9,1.09,5.73,3.66,7.35,6.21,4.23,6.67,7.81,13.76,11.64,20.68-4.52-1.95-6.51-6.28-8.31-10.2-2.95-6.44-6.89-11.45-13.17-14.94-7.01-3.9-8.99-10.06-6.68-17.87.8-2.69,1.1-5.54,2.01-8.18,1.99-5.7,6.92-7.99,12.12-9.85Z"/>
      <path d="m17.17,634.5c-2.31,3.91-7.59,4.41-9.61,9.03-2.05,4.68-3.2,9.42-3.39,14.39-.14,3.68,1.45,6.71,4.91,8.53,1.16.61,2.84,1.47,1.94,2.91-1.12,1.78-2.55.25-3.82-.43-2.34-1.25-3.77-3.37-4.75-5.6-2.61-5.93.33-19.26,4.93-23.87,2.67-2.68,6.01-4.08,9.47-5.3,0,0,.34.35.34.35Z"/>
      <path d="m50.03,614.25c3.91,2.84,5.09,6.89,3.97,11.26-1.15,4.48-4.24,7.59-8.92,8.78,1.05-1.28,1.99-2.68,3.18-3.82,5.14-4.94,2.92-10.63,1.78-16.22Z"/>
      <path d="m11.88,592.42c6.9.7,12.83,3.57,18.05,8.03-6.33-1.98-12.77-3.71-18.05-8.03Z"/>
      <path d="m34.05,602.23c4.11.79,8.16,1.66,9.91,6.21-4.32-.44-7.42-2.84-9.91-6.21Z"/>
      <path d="m27.03,684.47c-2.76-3.15-4.73-5.41-6.88-7.87,4.55.36,5.93,1.84,6.88,7.87Z"/>
      <path d="m88.09,189.38c-3.08,4.07-9.07,5.73-14.1,4.55-8.32-1.95-16.87-2.47-25.33-3.5-3.41-.41-6.07,2.82-9.56,1.86,5.41-5.47,12.05-4.97,18.54-3.23,6.77,1.81,13.85.7,20.6,2.97,3.29,1.1,6.11-3.26,9.85-2.65Z"/>
      <path d="m56.05,598.23c7.94,1.77,12.97,7.54,17.99,13.25,7.76,8.82,8.53,14.21-3.2,21.88-2.33,1.53-3.92,4.1-6.78,4.91.78-4.91,5.55-6.37,8.38-9.49,4.94-5.45,5.33-8.36.59-14.12-4.44-5.39-9.33-10.34-15.24-14.15-.9-.58-1.53-1.24-1.74-2.28Z"/>
      <path d="m481.6,727.44c2.1.18,3.16,1.51,3.13,3.54-.02,1.39-.17,3.46-2.05,3.25-2.11-.24-3.03-2.31-3.4-4.28-.3-1.58.69-2.39,2.32-2.52Z"/>
      <path d="m232.1,208.91c.55,2.97-.79,6.07-1.95,9.18-1.23,3.3-1.44,7.26-6,8.34-5.45,1.28-8.76-2.02-11.04-5.76-2.55-4.19-4.27-9.07-4.05-14.18.24-5.5,3.47-9.19,8.49-10.24,10.43-2.18,14.54,1.26,14.54,12.67Zm-3.32-.5c-1.13-3.03-.59-6.86-4.11-9.06-3.31-2.07-5.92.09-8.28,1.56-4.56,2.83-3.03,7.42-1.98,11.31,1,3.67,3.04,7.89,7.08,8.16,4.5.3,5.01-4.57,6.31-7.89.48-1.22.63-2.58.98-4.08Z"/>
    </g>
  </g>
</svg>