<?xml version="1.0" encoding="UTF-8"?>
<svg id="Layer_2" data-name="Layer 2" xmlns="http://www.w3.org/2000/svg" viewBox="0 0 476.78 102.1">
  <defs>
    <style>
      .cls-1 {
        fill: #e6385a;
      }
    </style>
  </defs>
  <g id="Layer_1-2" data-name="Layer 1">
    <g>
      <g>
        <path class="cls-1" d="m32.09,41.16L48.97,1.09h15.29v58.8h-11.34V17.89l-15.29,37.04h-11L11.34,17.89v42H0V1.09h15.29l16.8,40.07Z"/>
        <path class="cls-1" d="m95,30.49c0-17.14,12.52-30.49,30.58-30.49s30.58,13.36,30.58,30.49-12.52,30.49-30.58,30.49-30.58-13.19-30.58-30.49Zm12.35,0c0,11.26,7.64,19.4,18.23,19.4s18.23-8.15,18.23-19.4-7.64-19.4-18.23-19.4-18.23,8.32-18.23,19.4Z"/>
        <path class="cls-1" d="m198.57,20.08v39.82h-11.68V1.09h12.01l25.12,40.15V1.09h11.68v58.8h-11.76l-25.37-39.82Z"/>
        <path class="cls-1" d="m269.55,1.09h15.62c19.24,0,31.16,11,31.16,29.4s-12.01,29.4-31.16,29.4h-15.62V1.09Zm16.04,48.55c11.17,0,18.4-6.47,18.4-19.15s-7.22-19.07-18.4-19.07h-4.2v38.22h4.2Z"/>
        <path class="cls-1" d="m359.35,44.77l-5.12,15.12h-11.93L363.13,1.09h12.43l20.83,58.8h-11.93l-5.12-15.12h-19.99Zm10-31l-6.8,21.17h13.69l-6.89-21.17Z"/>
        <path class="cls-1" d="m474.26,9.74l-7.48,7.73c-1.76-1.93-6.8-6.47-15.2-6.47-11.51,0-18.65,8.57-18.65,19.49,0,12.01,8.06,19.4,18.65,19.4,8.23,0,12.85-3.36,14.11-4.62v-7.22h-11.17v-10h22.26v23.27c-6.3,5.38-13.36,9.66-25.7,9.66-16.63,0-30.49-11.93-30.49-30.49,0-16.88,12.6-30.49,30.49-30.49,12.35,0,20.16,6.13,23.18,9.74Z"/>
      </g>
      <g>
        <path class="cls-1" d="m343.76,97.37l1.04,3.16c-.84.67-2.44,1.57-4.56,1.57-4.56,0-7.81-3.19-7.81-7.64s3.33-7.73,7.78-7.73c2.16,0,3.67.84,4.62,1.57l-1.09,3.25c-.64-.59-1.76-1.4-3.42-1.4-2.49,0-4.03,1.93-4.03,4.28,0,2.49,1.74,4.26,4.17,4.26,1.48,0,2.66-.78,3.3-1.32Z"/>
        <path class="cls-1" d="m357.36,86.73c4.48,0,7.9,3.3,7.9,7.73s-3.3,7.64-7.9,7.64-7.87-3.22-7.87-7.64,3.42-7.73,7.87-7.73Zm0,11.96c2.32,0,4.03-1.74,4.03-4.23s-1.71-4.31-4.03-4.31-4,1.79-4,4.31,1.71,4.23,4,4.23Z"/>
        <path class="cls-1" d="m370.83,81.49h3.86v20.24h-3.86v-20.24Z"/>
        <path class="cls-1" d="m381.11,81.49h3.86v20.24h-3.86v-20.24Z"/>
        <path class="cls-1" d="m397.77,86.73c4.54,0,7.11,3.02,7.11,7.81,0,.28,0,.56-.03.84h-10.3c.08,1.96,1.65,3.36,3.81,3.36,1.99,0,3.14-1.18,3.56-1.79l2.55,1.93c-.56,1.04-2.52,3.22-6.16,3.22-4.7,0-7.7-3.25-7.7-7.64s3-7.73,7.17-7.73Zm3.19,6.13c-.08-1.79-1.37-2.97-3.14-2.97s-3,1.29-3.16,2.97h6.3Z"/>
        <path class="cls-1" d="m420.92,97.37l1.04,3.16c-.84.67-2.44,1.57-4.56,1.57-4.56,0-7.81-3.19-7.81-7.64s3.33-7.73,7.78-7.73c2.16,0,3.67.84,4.62,1.57l-1.09,3.25c-.64-.59-1.76-1.4-3.42-1.4-2.49,0-4.03,1.93-4.03,4.28,0,2.49,1.74,4.26,4.17,4.26,1.48,0,2.66-.78,3.3-1.32Z"/>
        <path class="cls-1" d="m427.84,84.01h3.81v3.08h2.74v3.14h-2.74v5.66c0,2.18.67,2.63,2.16,2.63.25,0,.39,0,.7-.03v3.3s-.59.14-1.65.14c-3.5,0-5.04-1.96-5.04-5.94v-5.77h-1.54v-3.14h1.57v-3.08Z"/>
        <path class="cls-1" d="m442.06,81.35c1.29,0,2.27.95,2.27,2.21s-.98,2.21-2.27,2.21-2.24-.95-2.24-2.21.98-2.21,2.24-2.21Zm-1.9,5.74h3.86v14.64h-3.86v-14.64Z"/>
        <path class="cls-1" d="m456.82,86.73c4.54,0,7.11,3.02,7.11,7.81,0,.28,0,.56-.03.84h-10.3c.08,1.96,1.65,3.36,3.81,3.36,1.99,0,3.14-1.18,3.56-1.79l2.55,1.93c-.56,1.04-2.52,3.22-6.16,3.22-4.7,0-7.7-3.25-7.7-7.64s3-7.73,7.17-7.73Zm3.19,6.13c-.08-1.79-1.37-2.97-3.14-2.97s-3,1.29-3.16,2.97h6.3Z"/>
        <path class="cls-1" d="m470.12,90.23h-1.57v-3.14h1.57v-.53c0-3.81,2.55-5.07,5.4-5.07.56,0,.98.03,1.26.06v3.25c-.08,0-.42-.06-.76-.06-1.34,0-2.04.62-2.04,1.9v.45h2.55v3.14h-2.55v11.51h-3.86v-11.51Z"/>
      </g>
    </g>
  </g>
</svg>